/* XPM */
static char *back1[] = {
/* columns rows colors chars-per-pixel */
"50 50 72 1 ",
"  c #0B160B",
". c #0D1A0D",
"X c #1C1715",
"o c #1A191A",
"O c #261F1F",
"+ c #0F2110",
"@ c #102116",
"# c #142F15",
"$ c #172119",
"% c #1A251C",
"& c #122B1D",
"* c #1D291F",
"= c #153316",
"- c #28201C",
"; c #122221",
": c #1E2B20",
"> c #18302F",
", c #1A3533",
"< c #1D3E3D",
"1 c #212725",
"2 c #2F2621",
"3 c #202E23",
"4 c #292829",
"5 c #322723",
"6 c #352925",
"7 c #382D27",
"8 c #243326",
"9 c #283A2B",
"0 c #3F322C",
"q c #343233",
"w c #383637",
"e c #3B393A",
"r c #443733",
"t c #463937",
"y c #19422B",
"u c #1B4930",
"i c #21603E",
"p c #5A463D",
"a c #5C483F",
"s c #234E4D",
"d c #364640",
"f c #2D5E5F",
"g c #266D46",
"h c #286E4B",
"j c #2A7B4E",
"k c #2D6665",
"l c #377F7D",
"z c #424041",
"x c #594945",
"c c #455A52",
"v c #565253",
"b c #654E44",
"n c #66534E",
"m c #68554F",
"M c #655C56",
"N c #765F5A",
"B c #7A625D",
"V c #6A6667",
"C c #866C66",
"Z c #927670",
"A c #957D75",
"S c #A67F6E",
"D c #428B90",
"F c #6F9486",
"G c #42BC80",
"H c #7AAEE2",
"J c #9C9697",
"K c #B79D93",
"L c #AEA7A8",
"P c #BFB0A5",
"I c #C0B3A7",
"U c #87BCE8",
/* pixels */
".@+.+=====+..+@@.... @..  .+  ..@...+++@+..  @.  .",
"+===;s@LD@@@@=++@+++++=@..@+...+.+@==@===@=@@+@...",
"===@@s4LDHH@s=====@@==L@@@=========<l@DDsl.=++++@+",
"LsHHDs4LHHH>lHDqH>sHoqLH,sf,4z===oz<lHDHs;Hq===#+=",
"LlHHD<qLHHU<;UDqU>kH4qVHHlDU4V,;Hoq<lHD;sDU4LHsDUq",
"LlDUD<4JDD;sUU4zD>lUoqVU>lDU4V>,D4z<lUD>lDU4LDsDDq",
"VlDDD<qLDD>lDD4qD>sDUqzD<;DD4z>lD4e<lDD>lDG4L;s;D4",
"VjGGGGqLGG<lDGoq&jGGD4VGGjjG4zj&G4qLlDDjGjj4V;s;D4",
"z&jjjoqLjGjjGioqijjjG4zojiij4zojG4qLGGji&ig4VjhGG4",
"zuiiu4qviiii&ioqoiiiu4qVuuui4zuiiozVjiiuuuu4ziiii4",
"zuuuuoqzuuuuuu4qLuuuu4qVuuuuqzuuuoqVuuuuguuqquuuu4",
"euu&u4qz3**uuu4qL*8*:4qV*jj94zL3j3qVyuuuj334wo3334",
"qL9j944zL989j94qV88884qzL9j44zz888qz88d8jj%4489j84",
"qj9c34jqq98j894qq999jjqqq9%%444%9444o99339F9j99994",
"3j8%3*j%889j:%%oo81%$j$*399:%:999333X00bb*99999934",
"bSXXXpbX33333SbX33393Sbb0055500755555550X0bS333399",
"-505055005665-XOX000055-MIIIIIIIICCCI-555555005000",
"CNX-------XICCCCI--5--ICCCCCCCCCOxCCCCX----------5",
"CCCNKKKCCCCCNCOOCCCCCNNCCCCCCCCCCCCCCCCCCCCCCCNNKI",
"CCCCCCCCCCCCCCCNCCCCCCCCCCCCCCCCCCCCCCCCCCCCCCCCtC",
"CCCCCCCCCCCCCCCCCCCCCCCNCCCCCCCCCCCCCCCCCCCCCCCCCC",
"CCCCCCtOCCCCCCCCCCCCCCCCCCCCCCCCCCCCCCNCCrCCCCCCCm",
"CCCCCCCCCCCCCCCCCCCCCCCCCCCCCCNCCCCCCCCNCCCCCCCCCC",
"CCCCCCCCCCCCCCCCCCCCCCCCCCCNNNNNCCCCCNNNNNNNCCCCCC",
"CCCCCCCCCCCCCCCCCCCCCCCCCCCCCCCCCCCCCCCCCNNNNCCCCC",
"CCCCrCCCCCCCCCCCCCCCCCCCCCCCCCCCCCCCCCCCCCCCCCCCCC",
"CCCCCCCCCCCCCCCNNNNNNCCCNCCCCCCCCCCCCCCCCCCCCCCCCC",
"CCNNNNNCCCCCCNNNNNNCNNNCCCCCCCCCCCCCCCCCCNNNCCCCCC",
"CCCCCCCNNNCCCNNNCCCCCCCCCCCCCCCCCCCNCCCCNNNNNCCCCC",
"CCCCCCNNCCCCCCCCCCCCCCCCCCCCCCCCCBNNNNNNNNNNNNCCCC",
"CCCNCCCCCCCCCCCCCCCCCCCCCNCCCCCCCCCCNCCCCCBNNNNCCC",
"CCCCCCCCCCCCCCCCCCCCCCCCCCCCCCCCCCCCCCCCCNCCCCCCCC",
"CCNNCCCCCCCCCCCCCCCCCCCCCCCCCCCCCCCCCCCCCCCCCCCCCC",
"CNNNNCCCCCCCCCCCCCCCCCCCCNNCCCCCCCCCCCCCCCCCCCNNCC",
"CCCCCCCCCCCCCCCCCCCCCCNNNNNCCCCNCCCCCCCCCCCCCCNNCC",
"CCCCCCCCCCCCNNNNCCCCCNNNNNNNCCCCCCCCCCNCCCCCCCCCCC",
"CCCCCCCCCCNNNNNNCCCCCCCCNNNCCCCCCCCCCCCCCCCCCCCCCC",
"CCCCCCCCCCNNNNNNCCCCCCCCCCCCCCCCCCCCCCCCCCCCCCCCCC",
"CCCCCCCCCCCCCCCCCCCCCCCCCCCCCCCCCCCCCCCCCCCCCCCCCC",
"CCCCCCCOCCCCCCCCCCCCCCCNCCCCCNNNNNCCCCCNNNCCCCCCCC",
"CnnCCCCCCCCCCCCCCCCCCCCCCCCCNNNNNCCCCCCCNNCCCCCCCC",
"CCCCCCCCCCCCCCCCCCCNNNCCCCCCCCCCCCCCCCCNNNCCCCNCCC",
"CCNNCCCCOCCNNCCCCCCCCCCCCCCCCCCCCCCCCCCCCCCCNNCBNC",
"SXSSKNNCCCCCCCCCCCCCCCCCCPPACCCCCCCCCCCCCCCCCCCCCC",
"0bSSSSPPCCCCCCCPPXPPPPXSbSSSXPCCCCCCCCCCCOCCCCCCCC",
"0bbb0bbSbSXSSSb00bb0b00b00ab0bSSSSPCCCCCCCCCCCCZCC",
"500005000050bb055007055055005500b00bb0bbXPCCCCCCCC",
"5555555550550005550555552050550505000550bbSPPPCCCP",
"--555-55555-5555-55555-2-555-55555555-5500000000bb",
"-----------------------------------5---55555555555"
};
