/* XPM */
static char *back[] = {
/* columns rows colors chars-per-pixel */
"50 50 20 1 ",
"  c #261F1F",
". c #362D2B",
"X c #3E3331",
"o c #443733",
"O c #463937",
"+ c #4A3D3A",
"@ c #594945",
"# c #745D5A",
"$ c #736966",
"% c #836A65",
"& c #927670",
"* c #074080",
"= c #868584",
"- c gray65",
"; c gray73",
": c #B5C5D9",
"> c gray81",
", c gray86",
"< c gray90",
"1 c white",
/* pixels */
"11111111111111111111111111111111*11111111111111111",
"111111111111111111*1111111111111111111111111111111",
"11111111111111111111111111111111111111111111111111",
"11111111111111*11111111111111111111111111111111111",
"11111111111111111111111111111111111111111111111111",
"1111111111*1111111111*1111111*11111111111111111111",
"111*111111111111111111111111111*111111111111111*11",
"111111111111*11111*1111111111111111111111111111111",
"1111111111*111111*111111111111111*1111111111111111",
"11111111111*11111*11111111111111111111111111111111",
"1*111*11111*111111111*1111111111111111111111:11111",
"11111111111111111111111111111111111111111111111111",
"11111111111111111111111111111111111111111111111111",
"1111111111111111111111111111*111111111111111111111",
"1111111111111111111111111111111111111*1*1111111111",
"111111111111111*1111111111111111111111111111111111",
"11111111111111111111*11111111111111111111111111111",
"111*111111111111111111*111111111111111111111111111",
"111111111111111111111*1111111111111111111111111111",
"111111111111*111111111111*111111111111111111111111",
"1111111111111111111111111111111111*111111111111111",
"11111111111*11111111111111111111111111111111111111",
"1111111111111111111111111111111111*111111111111111",
"11*1*11*1111111111*1111111111111111111111111111111",
"1111111111111111111111111*11111111111*111111111111",
"111111111111111111111111111111111111111*1111111111",
"11111111111111111111111111111111111111*11111111111",
"11111111111111111111111111111111111111111111111111",
"111111111111o1o111111*1111111111111111111**1111111",
"11111*1111111$1111111 && 11*1111111111111111111111",
"111111111111111111111.+@@#111111111111111111111111",
"111111111111111111111 .OO@111111    11111111111111",
"1111111111111111111>--=  -*11111.O@&&1111111111111",
"11111111111111111111111111111111.O@@%1111111111111",
"111*11111**1111111111111111111<--....1111111111111",
"11111*1111*11111111111111111111*1-->>1111111111111",
"11111111111111111111111111111*11111111111111111111",
"11111111111111111111111111111111111111111111111111",
"111*111111111111111111111111&&&&X11111111111111111",
"1111111111111111111111111*11 .OX 11111111111111111",
"11111111111111111111111111111>;,111111111111111111",
"111111**1111111*1111111111111111111111111111111111",
"11*11111111111111111111111111111111111111111111111",
"111111111111111111111111*1111111111111111111111111",
"11111111111111111111111*11111111111111111111111111",
"11111111111111111111111111111111111111111111111111",
"1111111111111*1111111111111111111111111111111*1111",
"1*111111111111111111111111111111111111111111111111",
"11111111111111111111111111111111111111111111111111",
"11111111111111111111111111111111111111111111111111"
};
