/* XPM */
static char *back3[] = {
/* columns rows colors chars-per-pixel */
"50 50 48 1 ",
"  c #1B221B",
". c #3A3C10",
"X c #303A1F",
"o c #1F2F23",
"O c #213C2B",
"+ c #3F4211",
"@ c #2A4E37",
"# c #2D533A",
"$ c #434712",
"% c #494F16",
"& c #454E18",
"* c #4D5313",
"= c #49541B",
"- c #525915",
"; c #585F15",
": c #586015",
"> c #54601F",
", c #59621C",
"< c #646C17",
"1 c #676F18",
"2 c #6B7319",
"3 c #727A1A",
"4 c #465323",
"5 c #596721",
"6 c #5F6D22",
"7 c #667424",
"8 c #697623",
"9 c #6B7A25",
"0 c #356345",
"q c #7A831B",
"w c #778729",
"e c #7A8C2A",
"r c #4C9164",
"t c #54A16F",
"y c #818B1D",
"u c #808422",
"i c #868927",
"p c #8E9621",
"a c #8F9920",
"s c #909920",
"d c #9FA723",
"f c #ADB627",
"g c #AEB827",
"h c #B1B634",
"j c #BCC42B",
"k c #CFD635",
"l c #D5DC3C",
"z c #DEE442",
/* pixels */
"eeeeeeeeeeeeeeeeeeeeeeeeeeeeeeeeeeeeeeeeeeeeeeeeee",
"eeeeeeeeeeeeeeeeeeeeeeeeeeeeeeeeeeeeeeeeeeeeeeeeee",
"eeeeeeeeeeeeeeeeeeeeeeeeeeeeeeeeeeeeeeeeeeeeeeeeee",
"eeeeeeeeeeeeeeeeeeeeeeeeeeeeeeeeeeeeeeeeeeeeeeeeee",
"eeeeeeeeeeeeeeeeeeeeeeeeeeeeeeeeeeeeeeeeeeeeeeeeee",
"eeeeeeeeeeeeeeeeeeeeeeeeeeeeeeeeeeeeeeeeeeeeeeeeee",
"eeeeeeeeeeeeeeeeeeeeeeeeeeeeeeeeeeeeeeeeeeeeeeeeee",
"eeeeeeeeeeeeeeeeeeeee9weeeeeeeeeeeeeeeeeeeeeeeeeee",
"eeeeeeeeeeeeeee9999999999eeeeeeeeeeeeeeeeeeeeeeeee",
"eeeeeeeeeee999999999999999ee9eeeeeeeeeeeeeeeeeeeee",
"eeeeeeeeee9999999999999999999999999eeeeeeeeeeeeeee",
"eeeeeeeeee9999999999999999999999999999eeeeeeeeeeee",
"eeeeeeeeee999999999999999999999999999999eeeeeeeeee",
"eeeeeeeeeeew99999999999999999999999999999eeeeeeeee",
"eeeeeeeeeeeeeeeeeeeeeeeeeeeeee99999999999eeeeeeeee",
"eeeeeeeeeeeeeeeeeeeeeeee99999999999999999eeeeeeeee",
"eeeeeeeeeeeeeeeeeeeeee9999999999999999999eeeeeeeee",
"eeeeeeeeeeeeeeee9999999999999999999999999eeeeeeeee",
"eeeeeeeeeeeeeeee999999999999999999999999eeeeeeeeee",
"eeeeeeeeeeeeee e999999999999999999999eeeeeeeeeeeee",
"eeeeeeeeeeeeee eeXeeeeeeeeeeeeeeeeeeeeeeeeeeeeeeee",
"eeeeeeeeeeeeeee e e eeeeeeeeeeeeeeeeeeeeeeeeeeeeee",
"eeeeeeeeeeeee4eeXee eeeeeeeeeeeeeeeeeeeeeeeeeeeeee",
"eeeeeeeeeeeee eeXeeeeeeeeeeeeeeeeeeeeeeeeeeeeeeeee",
"eeeeeeeeeeeeeXeeeeee eeeeeeeeeeeeeeeeeeeeeeeeeeeee",
"eeeeeeeeeeeeeeeeeeeeeeeeeeeeeeeeeeeeeeeeeeeeeeeeee",
"eeeeeeeeeeeeeeeeeeeeeeeeeeeeeeeeeeeeeeeeeeeeeeeeee",
"eeeeeeeeeeeeeeeeeeeeeeeeeeeeeeeeeeeeeeeeeeeeeeeeee",
"eeeeeeeeeeeeeeeeeeeeeeeeeeeeeeeeeeeeeeeeeeeeeeeeee",
"eeeeeeeeeeeeeeeeeeeeeee      4eeeeeeeeeeeeeeeeeeee",
"eeeeeeeeeeeeeee+eeeee ttttrttttXeee.eeeeeeeeeeeeee",
"eeeeeeeeeeeeee..eee76o@00000000 eee.eeeeee.eeeeeee",
"eeeeeeeeeeeee.<.eee66 O@@@@#@@@ eeeq.eeee%3eeeeeee",
"eeeeeeeeeeee.<d.eeee65=        6eee*z.eee:ieeeeeee",
"eeeeeee.eee.<yj.eeeeee6=======66eee*yhee.y.eeeeeee",
"eeeeeee18ee.<yz.eeeeeee66666weeeeee.pz.e%y.eeee..e",
"eeeeeee*ie.*<jz,e.eeeeeeeeeeeeeeeee.<jz.*y.e,.-f.e",
"ee,weee*j..*<jze..eeeeeeeeeeeeeeeee.-fjj:j..*<yzee",
"eee..ee.yz.**jz.y.eeeeeeeeeeeeeee.ee*3jyjj$*<jj.ee",
"eee8*.e.<jd<2zy<y,eeeeeeeeeeeeeee..,$<jj<ds<jzzeee",
"eeee.2.%:jzyyz*<keeeeeeeeeeeeeeeee.u.<jy<<jgyl.eee",
"eeeee+<zjyyjjj<yzeeeeeeeeeeeeeeeeee$j;33**<*3keeee",
"eeeee.*<<q<ya<<<zeeeeeeeeeeeeeeeeee.**<<****..eeee",
"eeeeee.**-*-::**$eeeeeeeeeeeeeeeeee6.***.=.+=+eeee",
"ee..66..****...=.eeeeeeeeeeeeeeee====...=>==>6eeee",
"e.*.=====..&=&=6>eeeeeeeeeeeeeeee==66>==66669eeeee",
"e.:.99e6666667eeeeeeeeeeeeeeeeeeeeeeeeeeeeeeeeeeee",
"e*<.eeeeeeeeeeeeeeeeeeeeeeeeeeeeeeeeeeeeeeeeeeeeee",
"e*<zeeeeeeeeeeeeee%eeeeeeeeeeeeeeeeeeeeeeeeeeeee.8",
".*yzeeeeeeeeeeee..keeeeeeeeeeeeeeeeeeeee.eeeeeeee."
};
