/* XPM */
static char *collectible[] = {
/* columns rows colors chars-per-pixel */
"50 50 229 2 ",
"   c #FFAE5D",
".  c #3B370E",
"X  c #3F3A12",
"o  c #483A0E",
"O  c #492D1E",
"+  c #4B3D12",
"@  c #413C13",
"#  c #4B2F20",
"$  c #543525",
"%  c #583726",
"&  c #593927",
"*  c #5C3A29",
"=  c #583729",
"-  c #4C3021",
";  c #633E2C",
":  c #3C4016",
">  c #4B4312",
",  c #4D4A14",
"<  c #404311",
"1  c #544512",
"2  c #544B15",
"3  c #5A4D14",
"4  c #5C4D1A",
"5  c #5A4814",
"6  c #555216",
"7  c #5A5315",
"8  c #595119",
"9  c #5A5A18",
"0  c #524911",
"q  c #634B14",
"w  c #635415",
"e  c #6A5214",
"r  c #635B16",
"t  c #65541B",
"y  c #6B5519",
"u  c #655A1B",
"i  c #6C5D1B",
"p  c #6C5F15",
"a  c #735A15",
"s  c #725C1B",
"d  c #7A5D1A",
"f  c #6C641C",
"g  c #64641B",
"h  c #7A6216",
"j  c #74641C",
"k  c #7C631C",
"l  c #756A1D",
"z  c #7B6C1E",
"x  c #746517",
"c  c #7C721E",
"v  c #65412D",
"b  c #7E5923",
"n  c #795926",
"m  c #7F5631",
"M  c #6F6721",
"N  c #756421",
"B  c #7B6322",
"V  c #746A21",
"C  c #7D6C24",
"Z  c #7A6D28",
"A  c #7A7427",
"S  c #1B3D73",
"D  c #1C3F78",
"F  c #163862",
"G  c #223E7F",
"H  c #1E427F",
"J  c #1C4076",
"K  c #84641D",
"L  c #836B1C",
"P  c #8B6D1C",
"I  c #8A6818",
"U  c #84741E",
"Y  c #8C731C",
"T  c #8F791E",
"R  c #98781E",
"E  c #946F19",
"W  c #835923",
"Q  c #8D5B24",
"!  c #8C5D2C",
"~  c #865A2D",
"^  c #935D23",
"/  c #925D2A",
"(  c #9A5D2C",
")  c #8A5E31",
"_  c #955931",
"`  c #836523",
"'  c #8A6523",
"]  c #826B22",
"[  c #8C6D25",
"{  c #8A622B",
"}  c #876E28",
"|  c #966026",
" . c #946B26",
".. c #9B632B",
"X. c #9E6A2D",
"o. c #966829",
"O. c #847224",
"+. c #8C7524",
"@. c #837A23",
"#. c #8C7B24",
"$. c #84742A",
"%. c #8C7529",
"&. c #857A2C",
"*. c #8C7B2C",
"=. c #927324",
"-. c #9D7325",
";. c #947B25",
":. c #9C7C23",
">. c #93742A",
",. c #947C2B",
"<. c #9A7C2B",
"1. c #996731",
"2. c #8E7F30",
"3. c #967E30",
"4. c #A2652C",
"5. c #A9632B",
"6. c #A17D24",
"7. c #A3712B",
"8. c #AC7C2D",
"9. c #A87C27",
"0. c #A06C32",
"q. c #AA6D32",
"w. c #A77533",
"e. c #9B801B",
"r. c #A9881F",
"t. c #B18B1E",
"y. c #B8931F",
"u. c #8D832C",
"i. c #8D8425",
"p. c #9D8525",
"a. c #94812D",
"s. c #9B842B",
"d. c #9B8B2D",
"f. c #92872A",
"g. c #958332",
"h. c #9B8431",
"j. c #958B32",
"k. c #9D8B33",
"l. c #9C9033",
"z. c #A18325",
"x. c #AB8425",
"c. c #A48B25",
"v. c #AD8B24",
"b. c #A3832C",
"n. c #A58C2A",
"m. c #AE8B2B",
"M. c #AA832E",
"N. c #B48C25",
"B. c #B58A2A",
"V. c #AA922B",
"C. c #A3912C",
"Z. c #BD9325",
"A. c #B4952C",
"S. c #BC942C",
"D. c #BA9B29",
"F. c #A58631",
"G. c #A48C33",
"H. c #AB8C33",
"J. c #A78C38",
"K. c #B38D34",
"L. c #B48F38",
"P. c #A39234",
"I. c #AB9335",
"U. c #AC9539",
"Y. c #AD9938",
"T. c #B49434",
"R. c #B49A34",
"E. c #BC9E35",
"W. c #B2953A",
"Q. c #BD953A",
"!. c #B39A3A",
"~. c #BB9D3B",
"^. c #B9A134",
"/. c #B8A43B",
"(. c #C79C2B",
"). c #CB9C2B",
"_. c #C3962A",
"`. c #D39C2B",
"'. c #C39E32",
"]. c #C29C3B",
"[. c #C69637",
"{. c #CB942B",
"}. c #CBA533",
"|. c #C3A33D",
" X c #CAA53B",
".X c #D4A738",
"XX c #C3A42E",
"oX c #BB9E41",
"OX c #C39D41",
"+X c #CA9A41",
"@X c #C4A443",
"#X c #CAA543",
"$X c #C9A64E",
"%X c #C5AA4B",
"&X c #CAAC4C",
"*X c #C8A945",
"=X c #D2AE47",
"-X c #C9B24C",
";X c #D5B247",
":X c #CAAC54",
">X c #C9A250",
",X c #D4AD51",
"<X c #CCB254",
"1X c #CEB65F",
"2X c #D6B254",
"3X c #CEB464",
"4X c #233F80",
"5X c #1E4282",
"6X c #1F4289",
"7X c #214385",
"8X c #21458D",
"9X c #254993",
"0X c #2A4D95",
"qX c #264A9A",
"wX c #2B4D9A",
"eX c #234790",
"rX c #2E5098",
"tX c #32539C",
"yX c #294BA2",
"uX c #2D52A4",
"iX c #2F52AD",
"pX c #3255A2",
"aX c #3457AA",
"sX c #3156B4",
"dX c #345CBA",
"fX c #355BB6",
"gX c #3E63BA",
"hX c #496BB5",
"jX c #3B66C6",
/* pixels */
"                                                                                                    ",
"                                                                                                    ",
"                                                                                                    ",
"                                                                                                    ",
"                                                                                                    ",
"                                  f.l.I.d.d.c.P.I.                                                  ",
"                                P.W.@X=XD.V.A.}.=XI.j.                                              ",
"                            #.$.>.F.Q.|.'.Z..X=X2X%X^.V.s.u.a.a.s.s.a.i.                            ",
"                          #.s.E.@XH.U.!.E.S.}..X<X-X<X.XA.G.G.].&X].K.G.h.g.j.                      ",
"                        O.;.E.&X&X|.U.k.h.|.'.R.P.Y.!.R.R.R.hXaX1X:X|.%X@XP.d.v.r.                  ",
"                      A i.#.O.aXsX!.U.k.@X1X<XG.k.g.k.Y.*XhXrX7XG oX].<X&Xg.m.y.t.                  ",
"                      l.^.'.0X0X9X7XU.L.@XoX|.W.s.G.!.!.*X|.4XS g.J.G.,.k.G./.).A.h.j.              ",
"                  d.h.@X:X}.I.5XS k.*.I.!.$.$.>.+.d.k.g.I.*.g.G.k.I.!.*.k.fXhX<X%X|.~.k.            ",
"                Z H.:X:XsXsXR.G./.%XI.k.l.&.O.+.C $.u.Y.P.k.2.*.&.g.h.G.9XpXsXqX3X%X~.I.*.          ",
"              &.a.h.G.wXtXrX5X~.<X<X@X].H.H.'.=Xn.a.$.A *.$.A &.j.u.a.:.8X8XqX6X&X|./.h.,.          ",
"              a.G.W.P.k.S F G.].+X[.Q.W.m.H.,X2X2XgXjX&.&.$.,.g.P.G.s.P Y 7XH k.W.G./.%X[           ",
"            @.$X:X-XU.Y.G.I.H.b.$.%.%.+.f.a.^.XXwXwXuXwXs.<.H.~.:XQ.W.c.Y +.O.N sXdXd.G.d           ",
"          b.Q.>X$X~.W.G.H.F.<.%.} ,.=.} +.*.s.c.s.5X5XH s.W.$X:X%XOX~.W.b.*.,.0XwXyXqXd s           ",
"          +.,.!.W.h.3.<.F.M.=.V [ ;.p.+.m.(.}.b.G.}.D +.*.gXQ.~.H.U.J.h.3.Q.+X<.8X5Xi i             ",
"          f f O.,.>.>.[ [  .` y +.c.(.). X}.(.S..X#X@X*.sXdX0XK.H.h.$.G.OXOX[.<.} i g j             ",
"            , l N k z } s k k k } x._.}.|.W.6.v.N.W.R.9XpX9X5X$.A A $.H.[.b.b.<.#.d.O.#.            ",
"              8 2 8 u 4 s [ [ U ;.=.=.H.s.;.6.:.V.V.n.C.8XJ C f A u.s.b. .[ } %.E.;X-Xb.h.          ",
"                t V [ >.>.].K.,.+.[ } } C ;.:.b.p.#.} N C u.@.A c z ;.s.} ,.m.S._..X<X&X].s.        ",
"              *.b.#X#X<.F.@X$XW.s.s.>.j n k K :.;.N 2 $.I.}.}.n.sXwX6.B.b.[.).6.R :.I.I.b.H.        ",
"              F.+X,X.XB.;.a.h.sXpXS.m.k q q e w 9 u O.h.K.;X;XuXuX7XS :.n.D.(.Z.:.dXiX*.V.#.        ",
"              $.-.).Z.N.v.=.yXuX9X5X:.P I E x 7 7 j [ [ :.v.N.R.eXS C V +.p.c.p.tXaX9X8Xc l         ",
"              i C ;.v.v.p.,.*.qX5XR P x._.`.D.x w j -.K K ;.O.C z l f t 4 7 7 9 9X8X5X, > 6         ",
"                , f =.;.@.sXV e w d N.`..X.X`.N.e y k s y i s j T O.} V 4 5 q 8 w 5X,               ",
"                  X 5 6 uXpXH 7 w h j P c._.Z.x.-.K L k i f z L U ;.<. .[ R v.r.r.R T               ",
"                      7 qX5XS f j k i t w L x.:.=.=.U z M M u 2 t i b ` <.9.Z.Z.t.P U               ",
"                    f f V 5X*.+.} } V j w p h h a a 5 i N V N t + + y s +.9.N.r.R a                 ",
"                    c l F.|.I.G.,.+.+.L e e 1 5 2 > 5 i V :.s.=.{ 7 > 2 a L k d a w                 ",
"                    l f *.a.P.s.a.O.j q o @ o o . % % % y k +.=.{ j w > 2 5 5 5 6                   ",
"                      g U +.>.} C u e 2 % * ; * % % ; * > > w w e w 2                               ",
"                        9 s s i u 6 X O % ; ; % = % * % ..< 2 7 7 2 >                               ",
"                          7 2 + @ :   % % ; ; ; % % % % ..8.    |                                   ",
"                        ..    ^ | /   % ; v v * O % % % % .. .                                      ",
"                      X...4.4.    9.! % % * * % - % * * * Q ..4...5.7.    ..                        ",
"                            ^ ../ { m v * % % % % % * * % Q ~ )       ..                            ",
"                    8.8.  X.    W m Q b * % % % % % = % * { >.) 1.^                                 ",
"                ..      q.w.M.7...m _ b % # % % = % % # W b   W       ^   X.                        ",
"                        0.    ^ ..! o.{ { b W Q b ~ / Q   W ! | 8.7.                                ",
"                    ..          ..Q  .....! ..( ! 1.X.0...w.    ..  ....                            ",
"                              X.0.    ..    9.  Q     |   X.^                                       ",
"                                    |     ^ ..      ..^                                             ",
"                                                              ^                                     ",
"                                                                                                    ",
"                                                                                                    ",
"                                                                                                    ",
"                                                                                                    "
};
