/* XPM */
static char *down[] = {
/* columns rows colors chars-per-pixel */
"50 50 5 1 ",
"  c #FFAE5D",
". c black",
"X c #B3493C",
"o c #CD746A",
"O c #FBF4F3",
/* pixels */
"                                                  ",
"                                                  ",
"                                                  ",
"                       ..                         ",
"                    ...XX...                      ",
"                  ..XXXXXXXX..                    ",
"                 .XXX.....XXXX.                   ",
"                .XXX.OOOOO.XXXX.                  ",
"               .XXX.OOOOOOO.XXXX.                 ",
"              .XXX.OOOOOOOOO.XXXX.                ",
"             .XXX.OOOOOOOOOOO.XXXX.               ",
"            .XXX.OOOOOOOOOOOOO.XXXX.              ",
"           .XXXX.OOOOOOOOOOOOO.XXXXX.             ",
"          .XXXX.OOOOOOOOOOOOOOO.XXXXX.            ",
"          .XXXX.OOOOOOOOOOOOOOO.XXXXX.            ",
"          .XXX.OOOOOOOOOOOOOOOOO.XXXX.            ",
"         .XXXX.OOOOOOOOOOOOOOOOO.XXXXX.           ",
"         .XXXX.OOOOOOOOOOOOOOOOO.XXXXX.           ",
"         .XXXX.OOOOOOOOOOOOOOOOO.XXXXX.           ",
"         .XXXX.OOOOOOOOOOOOOOOOO.XXXXX.           ",
"        .XXXXX.OOOOOOOOOOOOOOOOO.XXXXXX.          ",
"        .XXXXX.OOOOOOOOOOOOOOOOO.XXXXXX.          ",
"     ....XXXXX.OOOOOOOOOOOOOOOOO.XXXXXX....       ",
"    .XXX.XXXXX.OOOOOOOOOOOOOOOOO.XXXXXX.XXX..     ",
"   .XX...XXXXX.OOOOOO....OOOOOOO.XXXXXX...XXX.    ",
"  .XX.  .XXXXX.OOOOO......OOOOOO.XXXXXX.  ..XX.   ",
"  .X.   .XXXXXX.OOOO......OOOOO.XXXXXXX.  . .X.   ",
"  .X.  ..XXXXXX.OOOO.......OOOO.XXXXXXX. .o.oo.   ",
" ..oo..o.XXXXXXX.OOOOOOOOOOOOO.XXXXXXXX.  .oooo. .",
" .ooooo. .XXXXXXX.OOOOOOOOOOO.XXXXXXXX.  .ooooo. .",
" .oooo.  .XXXXXXXX.OOOOOOOOO.XXXXXXXXX.  .ooooo. .",
" .oooo.  .XXXXXXXXX.........XXXXXXXXXX.   .o.o.  .",
" .oooo.   .XXXXXXXXXXXXXXXXXXXXXXXXXX.     . .   .",
" .o.o.    .XXXXXXXXXXXXXXXXXXXXXXXXXX.           .",
"  . .      .XXXXXXXXXXXXXXXXXXXXXXXX.             ",
"            .XXXXXXXXXXXXXXXXXXXXXX.              ",
"             .XXXXXXXXXXXXXXXXXXXX.               ",
"              .XXXXXXXXXXXXXXXXXX.                ",
"               ...XXXXXXXXXXXX...                 ",
"                .X...XXXXXX...X.                  ",
"               .XXX. ...... .XX.                  ",
"              .XXX.         .XX.                  ",
"             .XXX.          .XX.                  ",
"            .XXX.           .XX.                  ",
"           .XXX.            .XX.                  ",
"           .XX.             .XX.                  ",
"            ..              .XX.                  ",
"                             ..                   ",
"                                                  ",
"                                                  "
};
