/* XPM */
static char *down[] = {
/* columns rows colors chars-per-pixel */
"47 46 5 1 ",
"  c #FFAE5D",
". c black",
"X c #B94A3E",
"o c #D07B71",
"O c white",
/* pixels */
"                                               ",
"                      ..                       ",
"                   ...XX...                    ",
"                 ..XXXXXXXX..                  ",
"                .XXX.....XXXX.                 ",
"               .XXX.OOOOO.XXXX.                ",
"              .XXX.OOOOOOO.XXXX.               ",
"             .XXX.OOOOOOOOO.XXXX.              ",
"            .XXX.OOOOOOOOOOO.XXXX.             ",
"           .XXX.OOOOOOOOOOOOO.XXXX.            ",
"          .XXXX.OOOOOOOOOOOOO.XXXXX.           ",
"         .XXXX.OOOOOOOOOOOOOOO.XXXXX.          ",
"         .XXXX.OOOOOOOOOOOOOOO.XXXXX.          ",
"         .XXX.OOOOOOOOOOOOOOOOO.XXXX.          ",
"        .XXXX.OOOOOOOOOOOOOOOOO.XXXXX.         ",
"        .XXXX.OOOOOOOOOOOOOOOOO.XXXXX.         ",
"        .XXXX.OOOOOOOOOOOOOOOOO.XXXXX.         ",
"        .XXXX.OOOOOOOOOOOOOOOOO.XXXXX.         ",
"       .XXXXX.OOOOOOOO....OOOOO.XXXXXX.        ",
"       .XXXXX.OOOOOOO......OOOO.XXXXXX.        ",
"    ....XXXXX.OOOOOOO......OOOO.XXXXXX....     ",
"   .XXX.XXXXX.OOOOOOO......OOOO.XXXXXX.XXX..   ",
"  .XX...XXXXX.OOOOOOO......OOOO.XXXXXX...XXX.  ",
" .XX.  .XXXXX.OOOOOOOO....OOOOO.XXXXXX.  ..XX. ",
" .X.   .XXXXXX.OOOOOOOOOOOOOOO.XXXXXXX.    .X. ",
" .X.  ..XXXXXX.OOOOOOOOOOOOOOO.XXXXXXX.    .X. ",
"..oo..o.XXXXXXX.OOOOOOOOOOOOO.XXXXXXXX. .  .X. ",
".ooooo. .XXXXXXX.OOOOOOOOOOO.XXXXXXXX. .o..oo. ",
".oooo.  .XXXXXXXX.OOOOOOOOO.XXXXXXXXX.  .ooooo.",
".oooo.  .XXXXXXXXX.........XXXXXXXXXX.   .oooo.",
".oooo.   .XXXXXXXXXXXXXXXXXXXXXXXXXX.    .oooo.",
".o.o.    .XXXXXXXXXXXXXXXXXXXXXXXXXX.    .oooo.",
" . .      .XXXXXXXXXXXXXXXXXXXXXXXX.      .o.o.",
"           .XXXXXXXXXXXXXXXXXXXXXX.        . . ",
"            .XXXXXXXXXXXXXXXXXXXX.             ",
"             .XXXXXXXXXXXXXXXXXX.              ",
"              ...XXXXXXXXXXXX...               ",
"               .X...XXXXXX...X.                ",
"               .XX. ...... .XX.                ",
"               .XX.        .XX.                ",
"               .XX.        .XX.                ",
"               .XX.        .XX.                ",
"               .XX.        .XX.                ",
"               .XX.        .XX.                ",
"               .XX.        .XX.                ",
"                ..          ..                 "
};
