/* XPM */
static char *enemy_flip[] = {
/* columns rows colors chars-per-pixel */
"50 50 155 2 ",
"   c #FFAE5D",
".  c black",
"X  c #000202",
"o  c #000303",
"O  c #000404",
"+  c #000505",
"@  c #000A0A",
"#  c #011E1E",
"$  c #012323",
"%  c #012929",
"&  c #013030",
"*  c #023939",
"=  c #023E3E",
"-  c #024242",
";  c #024545",
":  c #024646",
">  c #024E4E",
",  c #024F4F",
"<  c #025050",
"1  c #025151",
"2  c #025252",
"3  c #025353",
"4  c #025454",
"5  c #025555",
"6  c #025656",
"7  c #025757",
"8  c #025858",
"9  c #025959",
"0  c #025A5A",
"q  c #025B5B",
"w  c #025C5C",
"e  c #035D5D",
"r  c #035E5E",
"t  c #035F5F",
"y  c #036060",
"u  c #036161",
"i  c #036262",
"p  c #036363",
"a  c #036464",
"s  c #036565",
"d  c #036666",
"f  c #036767",
"g  c #036868",
"h  c #036969",
"j  c #036A6A",
"k  c #036B6B",
"l  c #036C6C",
"z  c #036D6D",
"x  c #036E6E",
"c  c #036F6F",
"v  c #037070",
"b  c #037171",
"n  c #037272",
"m  c #037373",
"M  c #037474",
"N  c #037575",
"B  c #037676",
"V  c #037777",
"C  c #037878",
"Z  c #037979",
"A  c #037A7A",
"S  c #037B7B",
"D  c #037C7C",
"F  c #037D7D",
"G  c #037E7E",
"H  c #037F7F",
"J  c #038080",
"K  c #038181",
"L  c #038282",
"P  c #048282",
"I  c #048383",
"U  c #048484",
"Y  c #048585",
"T  c #048686",
"R  c #048787",
"E  c #048888",
"W  c #048989",
"Q  c #048A8A",
"!  c #048B8B",
"~  c #048C8C",
"^  c #048D8D",
"/  c #048E8E",
"(  c #048F8F",
")  c #049090",
"_  c #049191",
"`  c #049292",
"'  c #049393",
"]  c #049494",
"[  c #049595",
"{  c #049696",
"}  c #049797",
"|  c #049898",
" . c #049999",
".. c #049A9A",
"X. c #049B9B",
"o. c #049C9C",
"O. c #049D9D",
"+. c #049E9E",
"@. c #049F9F",
"#. c #04A0A0",
"$. c #04A1A1",
"%. c #04A2A2",
"&. c #04A3A3",
"*. c #04A4A4",
"=. c #04A5A5",
"-. c #04A6A6",
";. c #04A7A7",
":. c #05A8A8",
">. c #05A9A9",
",. c #05AAAA",
"<. c #05ABAB",
"1. c #05ACAC",
"2. c #05ADAD",
"3. c #05AEAE",
"4. c #05AFAF",
"5. c #05B0B0",
"6. c #05B1B1",
"7. c #05B2B2",
"8. c #05B3B3",
"9. c #05B4B4",
"0. c #05B5B5",
"q. c #05B6B6",
"w. c #05B7B7",
"e. c #05B8B8",
"r. c #05B9B9",
"t. c #05BABA",
"y. c #05BBBB",
"u. c #05BCBC",
"i. c #05BDBD",
"p. c #05BEBE",
"a. c #05BFBF",
"s. c #05C0C0",
"d. c #05C1C1",
"f. c #05C2C2",
"g. c #05C3C3",
"h. c #05C4C4",
"j. c #05CACA",
"k. c #05CDCD",
"l. c #06CFCF",
"z. c #06D3D3",
"x. c #06D4D4",
"c. c #06DCDC",
"v. c #06DDDD",
"b. c #06DFDF",
"n. c #06EBEB",
"m. c #06ECEC",
"M. c #06EEEE",
"N. c #06EFEF",
"B. c #07F3F3",
"V. c #07F5F5",
"C. c #07F6F6",
"Z. c #07F8F8",
"A. c #0BF8F8",
"S. c #0CF8F8",
"D. c #0DF9F9",
/* pixels */
"                                                          0                                         ",
"                                                        H T                                         ",
"                            H                            .T                                         ",
"                            ~ ~                         4.H                                         ",
"                            g %.T                     ~ %.H                                         ",
"                            g T %.g                    . .H                                         ",
"                            d g  . .                g 4.~ T           v v                           ",
"                              g H 4.~               T 4.~ T         d %.                            ",
"                              g g ' 4.g d v v H H g  . .T T          .'             ,               ",
"                  o           g d H %. .H  . . . .H %.' T T H v   T 4.v           H g               ",
"                  o           d d g ~ %.%.7.7.7.7. . .~ ~ ' '  .~ T T g 2     v %.T                 ",
"                    o       H H v g T  .7.a.s.s.a.a.%. . .4.7.4.%. .H T     v %.' g                 ",
"                    o     v '  . . .%.7.s.s.s.s.s.s.a.a.a.a.a.a.7.~ %.T v v %.%.g d       g         ",
"                  0 : : d ~  .4.a.a.%.7.s.s.4.~ 4.a.a.a.a.a.a.7.~ 4.~ H ' %.%.H g       ~ s.'       ",
"                  v d @ H T  .%. .' 7.%.H & @ g 4.7.7.7.7.7.7.~ %. .g ' 4. .T d d     T a.a.~       ",
"                  d 2 o 0 2  .%.7. .0 o o d  .%.%.%.%.%.4.%.T  .%.H v  .7.%.H H     g a.s. .H       ",
"                  z.c.= o o 2 v = o o 2 ~ ' ' ' ' ' ' ' ' ~  .4.~ g v 4.a.7.' T   g 7.s.%.~ v       ",
"                j.D.D.' o o o o o v %.T ~ ~ ~ ~ ~ ~ ~ ~ ~ ~  .' T d v a.a.a.4. .T %.a.%.~ T g       ",
"              ~ D.D.M.%.% o # ' c.D.M.s.g ~ T T T ~ ~ ~ ~ ~ ~ ~ H 0 T 7.a.a.a.7.%.~  .~ T T d       ",
"              s.D.D.%.H $ s.%.D.D.D.D.c.H T T T T T T T T T ~ ~ H g ~ %.4.7.a.a.4.~ ~ ~ T T 0       ",
"              z.D.D.%.% % = 7.D.D.D.D.a.T T T T T T T T T T T T T T ~ '  .4.7.a.7.%.' ~ T T ,       ",
"      d H H H 4.M.B.M.' 0 T B.D.D.D.B.H H g H T H g H T T T T T T T ~ ~ '  .4.a.7.4.' ~ ~ T         ",
"        d H T d ' 4.' T ~ c.Z.D.D.M.' g  .a.a.a.a.7.H H T T T T ~ T T ~ ~ ' %.7.7.4. .~ ~ T         ",
"          2 v T ~ %.%.~  .' 7.j.j.' v 4.a.%.' '  .%.%.v T T T T T T T T ~ ~  .%.4.%.' ~ ~ T         ",
"        0 ' %.T v ~ ~ T ~  .%. . .4.7.4.T v g g v T ~ ~ T T T T T T T ~ T ~ ~ '  .' H T T H         ",
"        H %.s.%.H g T T T T ~ ~ ~ ' T g 2 g H H 2 d H T T T T T T T T T ~ T ~ ~ ~ H d H T H         ",
"      0 H ' s.s.%.' H v g g v v v g 2 ~ 7.M.j.M.a.T H T T T T T T T T T ~  .H T H d 2 v T H         ",
"      0 v H  .a.a.a.7.7.7.7.7.4.4.%. .T T j.a.c.%.v H T T T T T T T T H H ~  .T g 0 2 v T H         ",
"        v g H ~ '  .%.%.%.%.%. .' '  .%. .' T H T T T T T T T T T T T v g d g ' ~ d 2 g T H         ",
"        0 v g g v H H T T H H v v v T ~ ' ' ' ~ T T T T T T T T T T T H v v g g T H 2 d v H         ",
"          2 v H v g g g g g d d v v T T T ~ ~ ~ T T T T T T T T ~ ~ T T T T H d 0 g g 0 d g         ",
"              2 d g v v v g g g d g H T T T T T T T T T T T T T ~ ~ T T T T v d 0 ,   2 g 0         ",
"              0 g 0 0 0 0 0 d g v T T T T T T T T T T T T T T ~ ~ ~ T T T H d 0 0                   ",
"                v 0 d d d g H T T T T T T T T T T T T T ' H T T ~ ~ T T T g 0 0 0 ~                 ",
"                v 0 g v H T T T T T T T T T T T T T H d ' ~ v T T T T ~ H d 0 0 2 T v               ",
"                d 2 g H T T T T T T T T T T T T T T v g v  .v T T T H T  .d 0 2     d :             ",
"                : 0 d v T T T T T T T T T T T T T T T v d ' H T T H H g T ~ 0                       ",
"                0 0 g g v H T T T T T T T T T T T T T v v T ~ H H g d v v ' H                       ",
"              d v d 2 g d g v H H T T T T T T T T T T H g H ' d d 0 0 0 g H  .g                     ",
"              0       0 v g d d d ~ H g v H v H H H v g d g  .v 0 0 g v     H ~                     ",
"                          d v v d ~ H 0 v d d d d d 0 0 0 0 T H g v d         d d                   ",
"                              0 g ~ v d H 0 d d d d d g g v g v 0                                   ",
"                                  ~ v v d g g g v v g g H d   0                                     ",
"                                  ' v v               g ' T                                         ",
"                                  ' v d               0 T ~                                         ",
"                                  ~ v                   g H                                         ",
"                                  H d                     d                                         ",
"                                  g                                                                 ",
"                                  ,                                                                 ",
"                                                                                                    "
};
