/* XPM */
static char *enemy[] = {
/* columns rows colors chars-per-pixel */
"50 50 155 2 ",
"   c #FFAE5D",
".  c black",
"X  c #000202",
"o  c #000303",
"O  c #000404",
"+  c #000505",
"@  c #000A0A",
"#  c #011E1E",
"$  c #012323",
"%  c #012929",
"&  c #013030",
"*  c #023939",
"=  c #023E3E",
"-  c #024242",
";  c #024545",
":  c #024646",
">  c #024E4E",
",  c #024F4F",
"<  c #025050",
"1  c #025151",
"2  c #025252",
"3  c #025353",
"4  c #025454",
"5  c #025555",
"6  c #025656",
"7  c #025757",
"8  c #025858",
"9  c #025959",
"0  c #025A5A",
"q  c #025B5B",
"w  c #025C5C",
"e  c #035D5D",
"r  c #035E5E",
"t  c #035F5F",
"y  c #036060",
"u  c #036161",
"i  c #036262",
"p  c #036363",
"a  c #036464",
"s  c #036565",
"d  c #036666",
"f  c #036767",
"g  c #036868",
"h  c #036969",
"j  c #036A6A",
"k  c #036B6B",
"l  c #036C6C",
"z  c #036D6D",
"x  c #036E6E",
"c  c #036F6F",
"v  c #037070",
"b  c #037171",
"n  c #037272",
"m  c #037373",
"M  c #037474",
"N  c #037575",
"B  c #037676",
"V  c #037777",
"C  c #037878",
"Z  c #037979",
"A  c #037A7A",
"S  c #037B7B",
"D  c #037C7C",
"F  c #037D7D",
"G  c #037E7E",
"H  c #037F7F",
"J  c #038080",
"K  c #038181",
"L  c #038282",
"P  c #048282",
"I  c #048383",
"U  c #048484",
"Y  c #048585",
"T  c #048686",
"R  c #048787",
"E  c #048888",
"W  c #048989",
"Q  c #048A8A",
"!  c #048B8B",
"~  c #048C8C",
"^  c #048D8D",
"/  c #048E8E",
"(  c #048F8F",
")  c #049090",
"_  c #049191",
"`  c #049292",
"'  c #049393",
"]  c #049494",
"[  c #049595",
"{  c #049696",
"}  c #049797",
"|  c #049898",
" . c #049999",
".. c #049A9A",
"X. c #049B9B",
"o. c #049C9C",
"O. c #049D9D",
"+. c #049E9E",
"@. c #049F9F",
"#. c #04A0A0",
"$. c #04A1A1",
"%. c #04A2A2",
"&. c #04A3A3",
"*. c #04A4A4",
"=. c #04A5A5",
"-. c #04A6A6",
";. c #04A7A7",
":. c #05A8A8",
">. c #05A9A9",
",. c #05AAAA",
"<. c #05ABAB",
"1. c #05ACAC",
"2. c #05ADAD",
"3. c #05AEAE",
"4. c #05AFAF",
"5. c #05B0B0",
"6. c #05B1B1",
"7. c #05B2B2",
"8. c #05B3B3",
"9. c #05B4B4",
"0. c #05B5B5",
"q. c #05B6B6",
"w. c #05B7B7",
"e. c #05B8B8",
"r. c #05B9B9",
"t. c #05BABA",
"y. c #05BBBB",
"u. c #05BCBC",
"i. c #05BDBD",
"p. c #05BEBE",
"a. c #05BFBF",
"s. c #05C0C0",
"d. c #05C1C1",
"f. c #05C2C2",
"g. c #05C3C3",
"h. c #05C4C4",
"j. c #05CACA",
"k. c #05CDCD",
"l. c #06CFCF",
"z. c #06D3D3",
"x. c #06D4D4",
"c. c #06DCDC",
"v. c #06DDDD",
"b. c #06DFDF",
"n. c #06EBEB",
"m. c #06ECEC",
"M. c #06EEEE",
"N. c #06EFEF",
"B. c #07F3F3",
"V. c #07F5F5",
"C. c #07F6F6",
"Z. c #07F8F8",
"A. c #0BF8F8",
"S. c #0CF8F8",
"D. c #0DF9F9",
/* pixels */
"                                        e                                                           ",
"                                        J H                                                         ",
"                                        J O.                          H                             ",
"                                        H <.                        ( (                             ",
"                                        H =.(                     J =.c                             ",
"                                        H O.O.                  c =.J c                             ",
"                          b b           J ( <.c                 O.O.c d                             ",
"                            =.d         J ( <.J               ( <.H c                               ",
"              >             ' O.        J J O.O.c H b b c d c =.' c c                               ",
"              c H           b <.J   b H J J ' =.H O.O.O.O.H O.=.H d c           .                   ",
"                J =.b     6 c J J ( O.' ( ( ( O.O.q.q.q.q.=.=.( c d d           .                   ",
"                c ' =.b     J H O.=.<.q.<.O.O.=.u.u.s.s.u.q.O.J c b H H       .                     ",
"        c       d c =.=.b b H =.( q.u.u.u.u.u.u.s.s.s.s.s.s.q.=.O.O.O.' b     .                     ",
"      ' s.(       c H =.=.' H ( <.( q.u.u.u.u.u.u.<.( =.u.s.q.=.u.u.<.O.( d - - e                   ",
"      ( u.u.J     d d J O.<.' c O.=.( q.u.q.q.q.q.<.c @ & H =.q.' ' =.O.J H @ d b                   ",
"      H O.s.u.c     H H =.q.O.b H =.O.J =.<.<.=.=.=.=.O.d . . e O.q.=.O.6 e . 6 d                   ",
"      b ( =.s.q.c   J ' q.u.<.H c ( =.O.( O.O.' ' ' ' ' O.( 6 . . * b 6 . . * c.x.                  ",
"      c J ( =.u.=.J O.<.u.u.u.b e H ' O.( ( ( ( ( ( ( ( ( ( J =.b . . . . . ' D.D.k.                ",
"      d J J ( O.( =.q.u.u.u.q.J e H J ( ( ( J J ( J J J ( c s.N.D.c.' # . % =.N.D.D.(               ",
"      e J J ( ( ( <.u.u.q.<.=.( c H ( ( J J J J J J J J J H c.D.D.D.D.=.s.$ H =.D.D.s.              ",
"      6 J J ( ' =.q.u.q.<.=.' ( J J ( ( ( ( J J J J J J J J u.D.D.D.D.q.* % % =.D.D.x.              ",
"        J J ( ' <.q.u.<.=.' ( ( J J ( J ( ( J H c H J H c H H B.D.D.D.B.J e ' N.B.N.<.H H H d       ",
"        J J ( O.<.q.q.=.' ( ( J J J J J ( ( H H q.u.u.u.u.O.c ' N.D.D.Z.c.( J ' <.' d J J d         ",
"        J ( ( ' =.<.=.O.( ( J J J J J J ( J b =.=.O.' ' =.u.<.b ' k.k.q.' O.( =.=.( J b 6           ",
"        H J J H ' O.' ( ( J J J ( ( ( ( J J ( ( J b c c b J <.q.<.O.O.=.O.( J ( ( b J =.' e         ",
"        H J H d H ( ( ( J ( J J ( ( ( ( J J J H d 6 H H c 6 c J ' ( ( ( J J J J c H =.s.=.H         ",
"        H J b 6 d H J H O.( J J ( ( J J J J ( H J u.N.k.N.q.( 6 c b b b c c b H ' =.s.s.' H e       ",
"        H J b 6 e c J O.( H H J ( ( J J J J ( J b =.c.u.k.H J O.=.<.<.q.q.q.q.q.u.u.u.O.H b e       ",
"        H J c 6 d ( ' c d c H ( J J J J ( J ( ( J J H J ' O.=.O.' ' O.=.=.=.=.=.O.' ( H c b         ",
"        H b d 6 H J c c b b H J J J J J ( J ( ( ( ( ( ' ' ' ( J b b b H H H H H H b c c b e         ",
"        c d e c c e d H J J ( ( ( J J J J J J J ( J ( ( ( J J J b c d d d c c c c b H c 6           ",
"        e c 6   > e d b J J ( ( ( J J J J J J J ( J J J J J J H d d c c c b b c c d 6               ",
"                  e e d H J J J J ( J ( J ( J J J J J J J J J J J b c d e e e e e c e               ",
"                ( e e e c J J J J J J J H ' J J J J ( J J J J J ( J J H c d e e e b                 ",
"              b J 6 e e d H ( J J J J b ' ' d H J ( ( ( J J J J J ( ( ( J H b c e c                 ",
"            - d     6 e d O.J J J J J H O.H c b ( ( ( ( J J J ( J J ( ( J J H c 6 d                 ",
"                      e ( J c J J J J H ' d b J ( ( J J J J ( ( J J ( ( J J b d e -                 ",
"                      H ' b b d c H H ( J b b J J ( J J ( J ( ( J J J J H b c c e e                 ",
"                    c O.H c e e e d d ' H c H J J J J J J J J J J H H H c d c 6 d b d               ",
"                    ( H     b c e e b ' c d c b H H H b H b c H ( d d d c b e       e               ",
"                  d d         d b c H J e e e e d d d d d b e H ( d b b d                           ",
"                                  e b c b c c d d d e d e H d b ( c e                               ",
"                                    e   d H c c c b c c c d b b (                                   ",
"                                        J ' c               b b '                                   ",
"                                        ( J e               d b '                                   ",
"                                        H c                   b (                                   ",
"                                        d                     d H                                   ",
"                                                                c                                   ",
"                                                                >                                   ",
"                                                                                                    "
};
