/* XPM */
static char *exit[] = {
/* columns rows colors chars-per-pixel */
"50 50 200 2 ",
"   c None",
".  c #613C3D",
"X  c #623D3E",
"o  c #633D3E",
"O  c #633D3F",
"+  c #643D3F",
"@  c #643E3F",
"#  c #653E3F",
"$  c #653E40",
"%  c #653F40",
"&  c #663F40",
"*  c #663F41",
"=  c #673F41",
"-  c #674041",
";  c #684041",
":  c #684042",
">  c #694142",
",  c #6A4143",
"<  c #6B4243",
"1  c #6B4244",
"2  c #6C4244",
"3  c #6C4344",
"4  c #6D4345",
"5  c #6E4445",
"6  c #6E4446",
"7  c #6F4446",
"8  c #6F4546",
"9  c #704547",
"0  c #714647",
"q  c #714648",
"w  c #724648",
"e  c #724748",
"r  c #734748",
"t  c #734749",
"y  c #744749",
"u  c #744849",
"i  c #74484A",
"p  c #75484A",
"a  c #76494A",
"s  c #76494B",
"d  c #77494B",
"f  c #774A4B",
"g  c #784A4C",
"h  c #794A4C",
"j  c #794B4C",
"k  c #794B4D",
"l  c #7A4B4D",
"z  c #7A4C4D",
"x  c #7B4C4D",
"c  c #7B4C4E",
"v  c #7C4C4E",
"b  c #7C4D4E",
"n  c #7C4D4F",
"m  c #7D4D4F",
"M  c #7E4E4F",
"N  c #7E4E50",
"B  c #7F4E50",
"V  c #7F4F50",
"C  c #804F51",
"Z  c #814F51",
"A  c #815051",
"S  c #815052",
"D  c #825052",
"F  c #825152",
"G  c #835153",
"H  c #845253",
"J  c #845254",
"K  c #855254",
"L  c #865254",
"P  c #865354",
"I  c #865355",
"U  c #875355",
"Y  c #875456",
"T  c #885456",
"R  c #895456",
"E  c #895556",
"W  c #895557",
"Q  c #8A5557",
"!  c #8B5657",
"~  c #8B5658",
"^  c #8C5759",
"/  c #8D5759",
"(  c #8E585A",
")  c #8F585A",
"_  c #8F595B",
"`  c #90595B",
"'  c #91595B",
"]  c #91595C",
"[  c #915A5C",
"{  c #925A5C",
"}  c #935B5D",
"|  c #945B5D",
" . c #955C5E",
".. c #965D5F",
"X. c #975D5F",
"o. c #985E60",
"O. c #995E60",
"+. c #995E61",
"@. c #995F61",
"#. c #9A5F61",
"$. c #9A5F62",
"%. c #9B6062",
"&. c #9C6062",
"*. c #9C6063",
"=. c #9C6163",
"-. c #9D6163",
";. c #9E6264",
":. c #9E6365",
">. c #9F6365",
",. c #9F6366",
"<. c #9F6466",
"1. c #A06467",
"2. c #A06567",
"3. c #A06668",
"4. c #A16668",
"5. c #A16769",
"6. c #A1676A",
"7. c #A2686A",
"8. c #A2686B",
"9. c #A2696B",
"0. c #A3696B",
"q. c #A36A6C",
"w. c #A36B6D",
"e. c #A46B6D",
"r. c #A46C6E",
"t. c #A56D6F",
"y. c #A56E70",
"u. c #A66E70",
"i. c #A66F71",
"p. c #A77072",
"a. c #A77173",
"s. c #A87375",
"d. c #A97476",
"f. c #AA7577",
"g. c #AA7678",
"h. c #AB7779",
"j. c #AC787A",
"k. c #AD7A7C",
"l. c #AE7B7D",
"z. c #AF7E7F",
"x. c #B07F81",
"c. c #B18082",
"v. c #B18183",
"b. c #B28284",
"n. c #B28385",
"m. c #B38486",
"M. c #B38586",
"N. c #B48587",
"B. c #B48688",
"V. c #B58688",
"C. c #B58889",
"Z. c #B6888A",
"A. c #B6898A",
"S. c #B6898B",
"D. c #B68A8B",
"F. c #B78A8B",
"G. c #B78A8C",
"H. c #B78B8C",
"J. c #B88B8D",
"K. c #B98D8F",
"L. c #BA8F90",
"P. c #BA8F91",
"I. c #BC9394",
"U. c #BE9697",
"Y. c #BE9698",
"T. c #BF9798",
"R. c #BF9899",
"E. c #C0999A",
"W. c #C19A9B",
"Q. c #C19B9C",
"!. c #C19B9D",
"~. c #C39D9F",
"^. c #C49FA0",
"/. c #C4A0A1",
"(. c #C5A1A2",
"). c #C6A3A4",
"_. c #C7A4A5",
"`. c #C7A4A6",
"'. c #C7A5A6",
"]. c #C8A5A6",
"[. c #C8A6A7",
"{. c #C9A7A8",
"}. c #C9A7A9",
"|. c #C9A8A9",
" X c #CAA8AA",
".X c #CAA9AA",
"XX c #CAAAAB",
"oX c #CBAAAB",
"OX c #CBABAC",
"+X c #CDAEAF",
"@X c #CFB1B2",
"#X c #D0B2B3",
"$X c #D1B4B5",
"%X c #D2B5B7",
"&X c #D2B6B7",
"*X c #D3B8B9",
"=X c #D4B9BA",
"-X c #D4BABB",
";X c #D5BBBC",
":X c #D6BCBD",
/* pixels */
"                        s 0 1 s g g g g B g s 1 1 s g g g g B B g s 1 0 s                           ",
"                    g T ^.x.S ~.[.`.&X|.;X;X`.w.%.~.`.`.;X|.;X;X&XR.S x.^.T g                       ",
"                g @.U.[.[.T.[ |.[.[.`.[.[.[.[.M.a.{.[.[.`.[.`.`.[.|.[ T.[.[.U.@.g                   ",
"              g M.&X;X|.[.A.^ `.{.[.[.[.[.[.[.h.5.`.{.[.[.[.[.[.{.`.^ A.[.|.;X&XM.g                 ",
"            g M.&X|.`.R.A.w.B M.A.A.J.J.J.J.V.@.[ M.J.J.A.A.A.A.A.M.B w.A.R.`.|.&XM.g               ",
"            ) |.|.[.T.h.w.[ 1 B g g g g B B B s e C g B g g g g g B 1 [ w.h.T.[.|.|.)               ",
"          g V.[.[.T.h.w.g 1 1 g C B B B S g 0 + 1 1 $ e B C B B C g 1 1 g w.h.T.[.[.V.g             ",
"          T `.[.[.M.w.g $ 1 g S S S S S S S g + 0 1 $ S S S S S S S g 1 $ g w.M.[.[.`.T             ",
"        e J.[.[.U.f.g $ $ 1 1 1 1 1 1 1 1 1 1 + 0 1 + $ 1 1 1 1 1 1 $ $ $ $ g f.U.[.[.J.e           ",
"        g `.[.[.A.2.e 1 g T T ^ ^ ^ ^ ^ ^ S s + e 0 + 1 1 e e e e e e 1 1 1 e 2.A.[.[.`.g           ",
"        s `.[.`.M.g + g T ^ %.y.y.y.y.y.w.@.C + g g + S %.y.y.y.y.y.a.%.T g + g M.`.[.`.s           ",
"        1 w.M.f.@.s $ g g B [ [ [ [ [ [ [ ) s + g e + s [ [ [ [ [ [ [ [ g g $ s @.f.M.w.1           ",
"        1 %.a.5.) 0 + + $ g T T T T T T T T S 1 s s 0 S T T T T T T T g + + + 0 ) 5.a.%.1           ",
"        s ~.{.`.M.g 0 g e C y.y.y.y.y.y.y.y.w.T s e [ w.y.y.y.y.y.y.y.C e g 1 g M.`.{.~.s           ",
"        g &X`.{.A.g S %.T e y.w.w.w.w.w.w.w.y.[ s e @.w.w.w.w.w.w.w.y.e T %.S g A.{.`.&Xg           ",
"        B ;X`.[.A.g 1 e 0 T w.w.w.w.w.w.w.w.y.[ g s @.w.w.w.w.w.w.w.w.T 0 e 1 g A.[.`.;XB           ",
"        g |.[.[.A.g g %.2.5.w.w.w.w.w.w.w.w.%.g T C B 2.w.w.w.w.w.w.w.5.2.%.g g A.[.[.|.g           ",
"        g ;X`.[.A.g $ - - - 1 1 - - 1 - - - 1 + T S 1 0 e e e e e e e e e e 1 g A.[.[.;Xg           ",
"        g `.[.[.A.B - 1 1 1 1 1 1 1 1 1 1 1 1 $ S B S w.w.w.w.w.w.w.y.y.w.w.S g A.[.[.[.g           ",
"        g [.[.{.J.g s S S S T T S S T T T T S e C g @.y.w.w.w.w.y.y.y.y.w.w.%.g A.{.[.[.g           ",
"        s ~.|.`.M.g g T T T T T T T T T T T S s S g ) w.y.y.y.y.y.y.y.y.y.y.[ g M.`.|.~.s           ",
"        1 [ 5.@.T 0 1 e e e e e e e e e e e 0 1 g s 1 C S S S S S S S S S S 0 1 T @.5.[ 1           ",
"        1 f.A.z.2.s g [ [ [ [ [ [ X.X.X.@.[ [ e s e s [ [ [ @.@.[ X.X.[ [ [ s s %.k.A.f.1           ",
"        s `.[.`.V.g [ w.w.w.w.w.w.w.w.w.w.w.w.^ 0 1 [ w.w.w.w.w.w.w.w.w.w.w.X.g V.`.[.`.s           ",
"        B ;X`.[.A.g %.w.w.w.w.w.w.w.w.w.w.w.S 1 1 1 1 S w.w.w.w.w.w.w.w.w.w.@.g A.[.`.;XB           ",
"        B ;X`.[.A.g C 2.w.w.5.5.5.5.5.5.2.^ s w.S ^ 5.e [ 5.5.5.5.5.5.5.5.%.B g A.[.`.;XB           ",
"        g |.[.[.A.g + $ $ $ $ $ $ $ $ $ $ $ 0 @.T g 2.e 1 s s s s s s s s s 1 g A.[.[.|.g           ",
"        g &X`.[.A.g + 1 0 0 0 0 0 0 0 0 0 1 0 @.T g 2.e [ w.y.y.y.y.y.y.y.w.T g A.[.`.&Xg           ",
"        g `.[.[.A.g + g S T T T T T T T S g 0 @.T g %.e w.w.w.w.w.w.w.w.w.w.%.g A.[.[.`.g           ",
"        g [.[.{.J.g + g S T T T T T T T T g 0 @.T g %.e [ y.y.y.y.y.y.y.y.w.) g A.{.[.[.g           ",
"        s T.|.`.x.B + 1 1 0 0 0 0 0 0 0 0 1 e @.T g %.e 0 B C C C C C C C g 1 B x.`.|.T.s           ",
"        1 S ^ S g 1 g @.%.%.%.%.%.%.%.%.%.B e @.T g 2.e $ + + + + + + + + + $ 1 g S ^ S 1           ",
"        e M.~.L.a.g @.w.w.w.w.w.w.w.w.w.w.%.e @.T g %.e s S S S S S S S S s + g f.L.~.M.e           ",
"        g [.[.[.A.g @.w.w.w.w.w.w.w.w.w.w.%.e @.T g %.e S T S S T T T T T S + g A.[.[.[.g           ",
"        B ;X`.[.A.g g %.2.2.2.2.2.2.%.2.%.C e @.T g %.e e S S S S S S S S s $ B A.[.`.;XB           ",
"        g &X`.[.A.g 1 g g g g g g g g g g 0 1 o.^ g %.e e g g g g g g g g g s g A.[.`.&Xg           ",
"        g |.[.[.A.g s [ [ 5.y.y.y.y.y.y.w.@.0 B S 0 T g %.y.y.y.y.y.y.2.[ [ T g A.[.[.|.g           ",
"        g @X[.[.A.g s S g S y.w.w.w.w.w.w.w.[ e e 1 s [ w.w.w.w.w.w.y.C g S s g A.[.[.@Xg           ",
"        g `.[.[.A.g g [ S e y.w.w.w.w.w.w.w.w.) s e [ w.w.w.w.w.w.w.y.e S [ g g A.[.[.`.g           ",
"        g `.[.{.J.g 1 0 1 T y.y.y.y.y.y.y.y.w.C g s @.y.y.y.y.y.y.y.y.T 1 0 1 g A.{.[.`.g           ",
"        e L.`.~.k.g + $ $ 1 e s e e e e s s 0 - g s 1 s s s s s s s s 1 1 $ $ g k.~.`.L.e           ",
"        - g B g e 1 s S S S S S S S S S S S e + e 1 g %.w.w.w.w.w.w.w.w.w.%.C 1 e g B g -           ",
"        e J.`.~.k.g g T T S S S S S S S T T g + g e @.w.w.w.w.w.w.w.w.w.w.w.%.g k.~.`.J.e           ",
"        g |.[.[.A.g 0 B C C C C C C C C S B 0 + s 0 [ w.y.y.y.y.y.y.y.y.y.y.[ g A.[.[.|.g           ",
"        B ;X`.[.A.g + + + + + + + + + + + + + + g e s [ [ [ [ [ [ [ [ [ [ [ s g A.[.`.;XB           ",
"        g &X[.{.A.g 0 S T T T T T T T T T T S 1 0 1 + + + + + + + + + + + + + g A.{.[.&Xg           ",
"        s E.{.`.M.g [ w.y.y.y.y.y.y.y.y.y.y.w.T 1 1 + s g g g g g g g g g g + B M.`.{.T.s           ",
"        1 h.M.k.w.s T w.y.y.y.y.y.y.y.y.y.y.w.S 0 1 + g S T T T T T T T S g + g w.k.M.h.1           ",
"        $ s s s e 1 1 s s s s s s s s s s s e 1 - - $ 1 1 1 1 1 1 1 1 1 1 1 $ 1 e s s s $           ",
"        $ $ $ $ $ $ $ $ $ $ $ $ $ $ $ $ $ $ $ $ $ $ $ $ $ $ $ $ $ $ $ $ $ $ $ $ $ $ $ $ $           "
};
