/* XPM */
static char *keep_left[] = {
/* columns rows colors chars-per-pixel */
"50 50 5 1 ",
"  c None",
". c black",
"X c #B3493C",
"o c #CD746A",
"O c #FBF4F3",
/* pixels */
"                                                  ",
"                                                  ",
"                                                  ",
"                                                  ",
"                 ...                              ",
"                .XXX.                             ",
"               .XXX.O.                            ",
"              .XXXX.OO.                           ",
"              .XXXX.OOO.                          ",
"             .XXXXXX.OOO.                         ",
"             .XXXXXX.OOOO.                        ",
"            .XXXXXXX.OOOOO.                       ",
"            .XXXXXXXX.OOOOO.                      ",
"            .XXXXXXXX.OOOOO..                     ",
"            .XXXXXXXX.OOOOO...                    ",
"            .XXXXXXXXX.OOOO....                   ",
"           .XXXXXXXXXX.OOOO....                   ",
"           .XXXXXXXXXX.OOOOO....                  ",
"           .XXXXXXXXXXX.OOOOOOO.                  ",
"           .XXXXXXXXXXX.OOOOOOO..                 ",
"           .XXXXXXXXXXX.OOOOOOOO.                 ",
"           .XXXXXXXXXXXX.OOOOOOO.                 ",
"           .XXXXXXXXXXXXX.OOOOOO.                 ",
"           .XXXXXXXXXXXXXX.OOOOO.                 ",
"           .XXXXXXXXXXXXXXX.OOOO.                 ",
"           .XXXXXXXXXXXXXXXX.OO.                  ",
"           .XXXXXXXXXXXXXXXXX..X.                 ",
"           .XXXXXXXXXXXXXXXXXXXXX.                ",
"            .XXXXXXXXXXXXXXXXXXXXX.               ",
"            .XXXXXXXXXX.XXXXXXXXXX.               ",
"            .XXXXXXXX.XX.XXXXXXXXXX.              ",
"            .XXXXXXXXX.XX.XXX.XXXXX.              ",
"            .XXXXXXXXXX.Xo.X.o.XXXX.              ",
"             .XXXXXXXXXX.oo.o.XXXXX.              ",
"             .XXXXXXXXXX.oooo.XXXXX.              ",
"              .XXXXXXXXXX.oooo.XXX.               ",
"              .XXXXXXXXXXX.oo.XXXX.               ",
"               .XXXXXXXXXXX..XXXX.                ",
"                .XXXXXXXXXXXXXX..                 ",
"                 ...XXXXXXXX...                   ",
"                    .........                     ",
"                   .XXX..XX.                      ",
"                  .XXX.  .XX.                     ",
"                 .XXX.   .XX.                     ",
"                 .XX.     .XX.                    ",
"                  ..      .XX.                    ",
"                           ..                     ",
"                                                  ",
"                                                  ",
"                                                  "
};
