/* XPM */
static char *keep_right[] = {
/* columns rows colors chars-per-pixel */
"50 50 5 1 ",
"  c #FFAE5D",
". c black",
"X c #B3493C",
"o c #CD746A",
"O c #FBF4F3",
/* pixels */
"                                                  ",
"                                                  ",
"                                                  ",
"                                                  ",
"                                                  ",
"                             ...                  ",
"                            .XXX.                 ",
"                           .O.XXX.                ",
"                          .OO.XXXX.               ",
"                         .OOO.XXXX.               ",
"                        .OOO.XXXXXX.              ",
"                       .OOOO.XXXXXX.              ",
"                      .OOOOO.XXXXXXX.             ",
"                     .OOOOO.XXXXXXXX.             ",
"                    ..OOOOO.XXXXXXXX.             ",
"                   ...OOOOO.XXXXXXXX.             ",
"                  ....OOOO.XXXXXXXXX.             ",
"                  ....OOOO.XXXXXXXXXX.            ",
"                 ....OOOOO.XXXXXXXXXX.            ",
"                 .OOOOOOO.XXXXXXXXXXX.            ",
"                ..OOOOOOO.XXXXXXXXXXX.            ",
"                .OOOOOOOO.XXXXXXXXXXX.            ",
"                .OOOOOOO.XXXXXXXXXXXX.            ",
"                .OOOOOO.XXXXXXXXXXXXX.            ",
"                .OOOOO.XXXXXXXXXXXXXX.            ",
"                .OOOO.XXXXXXXXXXXXXXX.            ",
"                 .OO.XXXXXXXXXXXXXXXX.            ",
"                .X..XXXXXXXXXXXXXXXXX.            ",
"               .XXXXXXXXXXXXXXXXXXXXX.            ",
"              .XXXXXXXXXXXXXXXXXXXXX.             ",
"              .XXXXXXXXXX.XXXXXXXXXX.             ",
"             .XXXXXXXXXX.XX.XXXXXXXX.             ",
"             .XXXXX.XXX.XX.XXXXXXXXX.             ",
"             .XXXX.o.X.oX.XXXXXXXXXX.             ",
"             .XXXXX.o.oo.XXXXXXXXXX.              ",
"             .XXXXX.oooo.XXXXXXXXXX.              ",
"              .XXX.oooo.XXXXXXXXXX.               ",
"              .XXXX.oo.XXXXXXXXXXX.               ",
"               .XXXX..XXXXXXXXXXX.                ",
"                ..XXXXXXXXXXXXXX.                 ",
"                  ...XXXXXXXX...                  ",
"                    .........                     ",
"                     .XX..XXX.                    ",
"                    .XX.  .XXX.                   ",
"                    .XX.   .XXX.                  ",
"                   .XX.     .XX.                  ",
"                   .XX.      ..                   ",
"                    ..                            ",
"                                                  ",
"                                                  "
};
