/* XPM */
static char *keep_down[] = {
/* columns rows colors chars-per-pixel */
"50 50 5 1 ",
"  c None",
". c black",
"X c #B3493C",
"o c #CD746A",
"O c #FBF4F3",
/* pixels */
"                                                  ",
"                                                  ",
"                      ..                          ",
"                   ...XX...                       ",
"                 ..XXXXXXXX..                     ",
"                .XXX.....XXXX.                    ",
"               .XXX.OOOOO.XXXX.                   ",
"              .XXX.OOOOOOO.XXXX.                  ",
"             .XXX.OOOOOOOOO.XXXX.                 ",
"            .XXX.OOOOOOOOOOO.XXXX.                ",
"           .XXX.OOOOOOOOOOOOO.XXXX.               ",
"          .XXXX.OOOOOOOOOOOOO.XXXXX.              ",
"         .XXXX.OOOOOOOOO...OOO.XXXXX.             ",
"         .XXXX.OOOOOOOO.....OO.XXXXX.             ",
"         .XXX.OOOOOOOO......OOO.XXXX.             ",
"        .XXXX.OOOOOOOO.......OO.XXXXX.            ",
"        .XXXX.OOOOOOOO.......OO.XXXXX.            ",
"        .XXXX.OOOOOOOOO.....OOO.XXXXX.            ",
"        .XXXX.OOOOOOOOOOOOOOOOO.XXXXX.            ",
"       .XXXXX.OOOOOOOOOOOOOOOOO.XXXXXX.           ",
"       .XXXXX.OOOOOOOOOOOOOOOOO.XXXXXX.           ",
"    ....XXXXX.OOOOOOOOOOOOOOOOO.XXXXXX....        ",
"   .XXX.XXXXX.OOOOOOOOOOOOOOOOO.XXXXXX.XXX..      ",
"  .XX...XXXXX.OOOOOOOOOOOOOOOOO.XXXXXX...XXX.     ",
" .XX.. .XXXXX.OOOOOOOOOOOOOOOOO.XXXXXX.  ..XX.    ",
"..oo.o..XXXXXX.OOOOOOOOOOOOOOO.XXXXXXX.    .X.    ",
".oooo. .XXXXXX.OOOOOOOOOOOOOOO.XXXXXXX.    .X.    ",
".oooo. .XXXXXXX.OOOOOOOOOOOOO.XXXXXXXX. .  .X.    ",
" .o.o.  .XXXXXXX.OOOOOOOOOOO.XXXXXXXX. .o..oo.    ",
"  . .   .XXXXXXXX.OOOOOOOOO.XXXXXXXXX.  .ooooo.   ",
"        .XXXXXXXXX.........XXXXXXXXXX.   .oooo.   ",
"         .XXXXXXXXXXXXXXXXXXXXXXXXXX.    .oooo.   ",
"         .XXXXXXXXXXXXXXXXXXXXXXXXXX.    .oooo.   ",
"          .XXXXXXXXXXXXXXXXXXXXXXXX.      .o.o.   ",
"           .XXXXXXXXXXXXXXXXXXXXXX.        . .    ",
"            .XXXXXXXXXXXXXXXXXXXX.                ",
"             .XXXXXXXXXXXXXXXXXX.                 ",
"              ...XXXXXXXXXXXX...                  ",
"               .X...XXXXXX...X.                   ",
"               .XX. ...... .XXX.                  ",
"               .XX.         .XXX.                 ",
"               .XX.          .XXX.                ",
"               .XX.           .XXX.               ",
"               .XX.            .XXX.              ",
"               .XX.             .XX.              ",
"               .XX.              ..               ",
"                ..                                ",
"                                                  ",
"                                                  ",
"                                                  "
};
