/* XPM */
static char *keep_up[] = {
/* columns rows colors chars-per-pixel */
"50 50 4 1 ",
"  c #FFAE5D",
". c black",
"X c #B3493C",
"o c #CD746A",
/* pixels */
"                                                  ",
"                                                  ",
"                                                  ",
"                         ..                       ",
"                      ...XX...                    ",
"                    ..XXXXXXXX..                  ",
"                   .XXXXXXXXXXXX.                 ",
"                  .XXXXXXXXXXXXXX.                ",
"                 .XXXXXXXXXXXXXXXX.               ",
"                .XXXXXXXXXXXXXXXXXX.              ",
"               .XXXXXXXXXXXXXXXXXXXX.             ",
"              .XXXXXXXXXXXXXXXXXXXXXX.            ",
"             .XXXXXXXXXXXXXXXXXXXXXXXX.           ",
"            .XXXXXXXXXXXXXXXXXXXXXXXXXX.          ",
"            .XXXXXXXXXXXXXXXXXXXXXXXXXX.          ",
"            .XXXXXXXXXXXXXXXXXXXXXXXXXX.          ",
"           .XXXXXXXXXXXXXXXXXXXXXXXXXXXX.         ",
"           .XXXXXXXXXXXXXXXXXXXXXXXXXXXX.         ",
"           .XXXXXXXXXXXXXXXXXXXXXXXXXXXX.         ",
"           .XXXXXXXXXXXXXXXXXXXXXXXXXXXX.         ",
"          .XXXXXXXXXXXXXXXXXXXXXXXXXXXXXX.        ",
"          .XXXXXXXXXXXXXXXXXXXXXXXXXXXXXX.        ",
"       ....XXXXXXXXXXXXXXXXXXXXXXXXXXXXXX....     ",
"     ..XXX.XXXXXXXXXXXXXXXXXXXXXXXXXXXXXX.XXX.    ",
"    .XXX...XXXXXXXXXXXXXXXXXXXXXXXXXXXXXX...XX.   ",
"   .XX..  .XXXXXXXXXXXXXXXXXXXXXXXXXXXXXX.  .XX.  ",
"   .X.  . .XXXXXXXXXXXXXXXXXXXXXXXXXXXXXX.   .X.  ",
"   .oo..o..XXXXXXXXXXXXXXXXXXXXXXXXXXXXXX.   .X.  ",
"  .ooooo. .XXXXXXXXXXXXXXXXXXXXXXXXXXXXXX..  .X.  ",
"  .oooo.   .XXXXXXXXXXXXXXXXXXXXXXXXXXXX..o..ooo. ",
"   ....    .XXXXXXXXXXXXXXXXXXXXXXXXXXXX. .ooooo. ",
"           .XXXXXXXXXXXXXXXXXXXXXXXXXXXX. .ooooo. ",
"            .XXXXXXXXXXXXXXXXXXXXXXXXXX.  .ooooo. ",
"            .XXXXXXXXXXXXXXXXXXXXXXXXXX. .oo.ooo. ",
"             .XXXXXXXXXXXXXXXXXXXXXXXX.  .o. .o.  ",
"              .XXXXXXXXXXXXXXXXXXXXXX.    .   .   ",
"               .XXXXXXXXXXXXXXXXXXXX.             ",
"                .XXXXXXXXXXXXXXXXXX.              ",
"                 ...XXXXXXXXXXXX...               ",
"                 .XX...XXXXXX...X.                ",
"                 .XXX. ...... .XXX.               ",
"                 .XX.         .XXX.               ",
"                 .XX.          .XXX.              ",
"                 .XX.           .XXX.             ",
"                 .XX.            .XXX.            ",
"                 .XX.             .XX.            ",
"                 .XX.              ..             ",
"                  ..                              ",
"                                                  ",
"                                                  "
};
