/* XPM */
static char *left[] = {
/* columns rows colors chars-per-pixel */
"47 46 5 1 ",
"  c #FFAE5D",
". c black",
"X c #B94B3E",
"o c #D07B72",
"O c white",
/* pixels */
"                                               ",
"                           ...                 ",
"                          .XXX.                ",
"                         .O.XXX.               ",
"                        .OO.XXXX.              ",
"                       .OOO.XXXX.              ",
"                      .OOO.XXXXXX.             ",
"                     .OOOO.XXXXXX.             ",
"                    .OOOOO.XXXXXXX.            ",
"                   .OOOOO.XXXXXXXX.            ",
"                  .OOOOOO.XXXXXXXX.            ",
"                 .OOOOOOO.XXXXXXXX.            ",
"                .OOOOOOO.XXXXXXXXX.            ",
"                .OOOOOOO.XXXXXXXXXX.           ",
"               .OOOOOOOO.XXXXXXXXXX.           ",
"               .OOOOOOO.XXXXXXXXXXX.           ",
"              ....OOOOO.XXXXXXXXXXX.           ",
"              .....OOOO.XXXXXXXXXXX.           ",
"              .....OOO.XXXXXXXXXXXX.           ",
"              ....OOO.XXXXXXXXXXXXX.           ",
"              .OOOOO.XXXXXXXXXXXXXX.           ",
"              .OOOO.XXXXXXXXXXXXXXX.           ",
"               .OO.XXXXXXXXXXXXXXXX.           ",
"              .X..XXXXXXXXXXXXXXXXX.           ",
"             .XXXXXXXXXXXXXXXXXXXXX.           ",
"            .XXXXXXXXXXXXXXXXXXXXX.            ",
"            .XXXXXXXXXXXX.XXXXXXXX.            ",
"           .XXXXXXXXXXX.XX.X.XXXXX.            ",
"           .XXXXXXXXXXXX.Xo.o.XXXX.            ",
"           .XXXXXXXXXXXXX.oooo.XXX.            ",
"           .XXXXXXXXXXXXXX.oooo.X.             ",
"           .XXXXXXXXXXXXX.o.oo.XX.             ",
"            .XXXXXXXXXXXXX.X..XX.              ",
"            .XXXXXXXXXXXXXXXXXXX.              ",
"             .XXXXXXXXXXXXXXXXX.               ",
"              ..XXXXXXXXXXXXXX.                ",
"                ...XXXXXXXXX..                 ",
"                   ..........                  ",
"                  .XXX..XX.                    ",
"                 .XXX.  .XX.                   ",
"                .XXX.   .XX.                   ",
"                .XX.     .XX.                  ",
"                 ..      .XX.                  ",
"                          ..                   ",
"                                               ",
"                                               "
};
