/* XPM */
static char *right[] = {
/* columns rows colors chars-per-pixel */
"47 46 5 1 ",
"  c #FFAE5D",
". c black",
"X c #B94B3E",
"o c #D07B72",
"O c white",
/* pixels */
"                                               ",
"                 ...                           ",
"                .XXX.                          ",
"               .XXX.O.                         ",
"              .XXXX.OO.                        ",
"              .XXXX.OOO.                       ",
"             .XXXXXX.OOO.                      ",
"             .XXXXXX.OOOO.                     ",
"            .XXXXXXX.OOOOO.                    ",
"            .XXXXXXXX.OOOOO.                   ",
"            .XXXXXXXX.OOOOOO.                  ",
"            .XXXXXXXX.OOOOOOO.                 ",
"            .XXXXXXXXX.OOOOOOO.                ",
"           .XXXXXXXXXX.OOOOOOO.                ",
"           .XXXXXXXXXX.OOOOOOOO.               ",
"           .XXXXXXXXXXX.OOOOOOO.               ",
"           .XXXXXXXXXXX.OOOOO....              ",
"           .XXXXXXXXXXX.OOOO.....              ",
"           .XXXXXXXXXXXX.OOO.....              ",
"           .XXXXXXXXXXXXX.OOO....              ",
"           .XXXXXXXXXXXXXX.OOOOO.              ",
"           .XXXXXXXXXXXXXXX.OOOO.              ",
"           .XXXXXXXXXXXXXXXX.OO.               ",
"           .XXXXXXXXXXXXXXXXX..X.              ",
"           .XXXXXXXXXXXXXXXXXXXXX.             ",
"            .XXXXXXXXXXXXXXXXXXXXX.            ",
"            .XXXXXXXX.XXXXXXXXXXXX.            ",
"            .XXXXX.X.XX.XXXXXXXXXXX.           ",
"            .XXXX.o.oX.XXXXXXXXXXXX.           ",
"            .XXX.oooo.XXXXXXXXXXXXX.           ",
"             .X.oooo.XXXXXXXXXXXXXX.           ",
"             .XX.oo.o.XXXXXXXXXXXXX.           ",
"              .XX..X.XXXXXXXXXXXXX.            ",
"              .XXXXXXXXXXXXXXXXXXX.            ",
"               .XXXXXXXXXXXXXXXXX.             ",
"                .XXXXXXXXXXXXXX..              ",
"                 ..XXXXXXXXX...                ",
"                  ..........                   ",
"                    .XX..XXX.                  ",
"                   .XX.  .XXX.                 ",
"                   .XX.   .XXX.                ",
"                  .XX.     .XX.                ",
"                  .XX.      ..                 ",
"                   ..                          ",
"                                               ",
"                                               "
};
