/* XPM */
static char *up[] = {
/* columns rows colors chars-per-pixel */
"47 46 4 1 ",
"  c None",
". c black",
"X c #B94B3E",
"o c #D07B72",
/* pixels */
"                       ..                      ",
"                    ...XX...                   ",
"                  ..XXXXXXXX..                 ",
"                 .XXXXXXXXXXXX.                ",
"                .XXXXXXXXXXXXXX.               ",
"               .XXXXXXXXXXXXXXXX.              ",
"              .XXXXXXXXXXXXXXXXXX.             ",
"             .XXXXXXXXXXXXXXXXXXXX.            ",
"            .XXXXXXXXXXXXXXXXXXXXXX.           ",
"           .XXXXXXXXXXXXXXXXXXXXXXXX.          ",
"          .XXXXXXXXXXXXXXXXXXXXXXXXXX.         ",
"          .XXXXXXXXXXXXXXXXXXXXXXXXXX.         ",
"          .XXXXXXXXXXXXXXXXXXXXXXXXXX.         ",
"         .XXXXXXXXXXXXXXXXXXXXXXXXXXXX.        ",
"         .XXXXXXXXXXXXXXXXXXXXXXXXXXXX.        ",
"         .XXXXXXXXXXXXXXXXXXXXXXXXXXXX.        ",
"         .XXXXXXXXXXXXXXXXXXXXXXXXXXXX.        ",
"        .XXXXXXXXXXXXXXXXXXXXXXXXXXXXXX.       ",
"        .XXXXXXXXXXXXXXXXXXXXXXXXXXXXXX.       ",
"     ....XXXXXXXXXXXXXXXXXXXXXXXXXXXXXX....    ",
"   ..XXX.XXXXXXXXXXXXXXXXXXXXXXXXXXXXXX.XXX.   ",
"  .XXX...XXXXXXXXXXXXXXXXXXXXXXXXXXXXXX...XX.  ",
" .XX..  .XXXXXXXXXXXXXXXXXXXXXXXXXXXXXX.  .XX. ",
" .X.    .XXXXXXXXXXXXXXXXXXXXXXXXXXXXXX.   .X. ",
" .X.    .XXXXXXXXXXXXXXXXXXXXXXXXXXXXXX..  .X. ",
" .X.  . .XXXXXXXXXXXXXXXXXXXXXXXXXXXXXX.o..oo..",
" .oo..o. .XXXXXXXXXXXXXXXXXXXXXXXXXXXX. .ooooo.",
".ooooo.  .XXXXXXXXXXXXXXXXXXXXXXXXXXXX.  .oooo.",
".oooo.   .XXXXXXXXXXXXXXXXXXXXXXXXXXXX.  .oooo.",
".oooo.    .XXXXXXXXXXXXXXXXXXXXXXXXXX.   .oooo.",
".oooo.    .XXXXXXXXXXXXXXXXXXXXXXXXXX.    .o.o.",
".o.o.      .XXXXXXXXXXXXXXXXXXXXXXXX.      . . ",
" . .        .XXXXXXXXXXXXXXXXXXXXXX.           ",
"             .XXXXXXXXXXXXXXXXXXXX.            ",
"              .XXXXXXXXXXXXXXXXXX.             ",
"               ...XXXXXXXXXXXX...              ",
"                .X...XXXXXX...X.               ",
"                .XX. ...... .XX.               ",
"                .XX.        .XX.               ",
"                .XX.        .XX.               ",
"                .XX.        .XX.               ",
"                .XX.        .XX.               ",
"                .XX.        .XX.               ",
"                .XX.        .XX.               ",
"                 ..          ..                ",
"                                               "
};
