/* XPM */
static char *wall_gr[] = {
/* columns rows colors chars-per-pixel */
"49 50 233 2 ",
"   c None",
".  c #151D1B",
"X  c #161D1B",
"o  c #17201B",
"O  c #18211B",
"+  c #1C281C",
"@  c #1D291C",
"#  c #212F1D",
"$  c #272E1D",
"%  c #282F1D",
"&  c #21301D",
"*  c #26321D",
"=  c #24341D",
"-  c #25351D",
";  c #26371E",
":  c #2B311D",
">  c #29331D",
",  c #2E351D",
"<  c #2F351D",
"1  c #343B1E",
"2  c #353C1E",
"3  c #383F1F",
"4  c #444C21",
"5  c #5B6525",
"6  c #537629",
"7  c #577D2A",
"8  c #597D2A",
"9  c #587D2B",
"0  c #697428",
"q  c #6E7929",
"w  c #467441",
"e  c #7E8A2D",
"r  c #6A9530",
"t  c #6B9631",
"y  c #6C9931",
"u  c #6D9931",
"i  c #6E9931",
"p  c #6D9932",
"a  c #6E9932",
"s  c #6F9A32",
"d  c #6E9C32",
"f  c #6F9C32",
"g  c #65953F",
"h  c #67973E",
"j  c #66963F",
"k  c #69973E",
"l  c #6F9F38",
"z  c #6F9E39",
"x  c #709A32",
"c  c #719E36",
"v  c #709F37",
"b  c #7F9E32",
"n  c #719F38",
"m  c #71A234",
"M  c #72A234",
"N  c #73A234",
"B  c #73A334",
"V  c #72A136",
"C  c #74A334",
"Z  c #75A334",
"A  c #75A434",
"S  c #76A434",
"D  c #77A434",
"F  c #78A434",
"G  c #78A534",
"H  c #79A534",
"J  c #7AA534",
"K  c #7AA535",
"L  c #7BA634",
"P  c #7AA635",
"I  c #7BA635",
"U  c #7CA635",
"Y  c #7DA635",
"T  c #7EA735",
"R  c #7FA735",
"E  c #7FA637",
"W  c #73A038",
"Q  c #78A13A",
"!  c #79A13A",
"~  c #7AA23A",
"^  c #7BA23A",
"/  c #7CA33A",
"(  c #7DA23B",
")  c #7EA33A",
"_  c #7EA43A",
"`  c #4C804A",
"'  c #4C814A",
"]  c #4D814A",
"[  c #4C804B",
"{  c #4E814A",
"}  c #4E814B",
"|  c #4F814B",
" . c #4E824A",
".. c #4F824A",
"X. c #4E834A",
"o. c #50824A",
"O. c #51824A",
"+. c #51834A",
"@. c #52834A",
"#. c #53834A",
"$. c #899F33",
"%. c #929F32",
"&. c #88A233",
"*. c #80A835",
"=. c #81A835",
"-. c #82A835",
";. c #82A935",
":. c #83A935",
">. c #84A935",
",. c #85AA35",
"<. c #86AA35",
"1. c #87AB35",
"2. c #85A936",
"3. c #85AA36",
"4. c #86AA36",
"5. c #87AA36",
"6. c #87AB36",
"7. c #89AB35",
"8. c #88AB36",
"9. c #89AB36",
"0. c #8FAA35",
"q. c #8AAC36",
"w. c #8BAC36",
"e. c #8CAC36",
"r. c #8CAD36",
"t. c #8DAD36",
"y. c #8EAD36",
"u. c #8FAE36",
"i. c #8EAE37",
"p. c #8FAE37",
"a. c #80A43A",
"s. c #81A53A",
"d. c #83A53B",
"f. c #84A63B",
"g. c #85A73B",
"h. c #86A73B",
"j. c #87A73B",
"k. c #84A838",
"l. c #87A938",
"z. c #88A83B",
"x. c #89A83B",
"c. c #8AA83B",
"v. c #8BA93B",
"b. c #8CA93B",
"n. c #8DAA3C",
"m. c #8EAA3C",
"M. c #95A233",
"N. c #90AA36",
"B. c #94AB36",
"V. c #96AB36",
"C. c #90AE36",
"Z. c #90AE37",
"A. c #90AF37",
"S. c #91AF37",
"D. c #92AF37",
"F. c #93AF37",
"G. c #9AA835",
"H. c #99AB36",
"J. c #9EAC36",
"K. c #9FAC36",
"L. c #9FAD36",
"P. c #9FAE36",
"I. c #90AB3C",
"U. c #91AB3C",
"Y. c #91AB3D",
"T. c #93AC3C",
"R. c #93AD3C",
"E. c #95AD3C",
"W. c #95AE3C",
"Q. c #97AE3C",
"!. c #97AE3D",
"~. c #98AF3D",
"^. c #99AF3D",
"/. c #9AAF3D",
"(. c #93B037",
"). c #94B037",
"_. c #95B037",
"`. c #96B137",
"'. c #97B137",
"]. c #97B237",
"[. c #98B237",
"{. c #99B237",
"}. c #9AB337",
"|. c #98B238",
" X c #99B238",
".X c #9AB338",
"XX c #9BB338",
"oX c #9BB23A",
"OX c #9BB438",
"+X c #9CB438",
"@X c #9DB438",
"#X c #9DB538",
"$X c #9EB438",
"%X c #9EB538",
"&X c #9FB538",
"*X c #A1B037",
"=X c #A2B137",
"-X c #A0B538",
";X c #A0B638",
":X c #A1B638",
">X c #A1B639",
",X c #A2B738",
"<X c #A2B639",
"1X c #A2B739",
"2X c #A3B739",
"3X c #A1B53A",
"4X c #A6B438",
"5X c #A4B739",
"6X c #A0B33D",
"7X c #A4B839",
"8X c #A5B839",
"9X c #A6B839",
"0X c #A6B939",
"qX c #A7B939",
"wX c #A9B839",
"eX c #A8B939",
"rX c #A9B939",
"tX c #A9BA39",
"yX c #A9BA3A",
"uX c #A9BB3A",
"iX c #AABA3A",
"pX c #AABB3A",
"aX c #ABBB3A",
"sX c #ACBB3A",
"dX c #ACBC3A",
"fX c #ADBC3A",
"gX c #ADBD3A",
"hX c #AEBC3A",
"jX c #AEBD3A",
"kX c #AFBD3A",
"lX c #8FA642",
"zX c #90A841",
"xX c #91A841",
/* pixels */
"                      2 2         2 2                   2 2             2 2                       ",
"                < % q =X%.2 , , 4 J.L.5 , = = # , , % 0 =XM.3 < < < < 2 %.=Xq # ,                 ",
"          + O e L.L.N.N.uXJ.J.J.J.uX0.J.L.b t t &.J.J.N.0.uXL.J.L.L.L.L.uXN.N.J.J.e O +           ",
"        . 9 $.4XkXkXuX#XN.uXuXuXuX0.#XuXuXqX0.`.uXuXuXuX#X0.uXuXkXkXkXuXN.#XuXuXuX4X$.9 .         ",
"      . 9 0.uXuXuXuXuXuXqXuXuXuXuX4XuXuXN.4XqXuXkXuXuXuXuX4XuXuXuXuXuXuXqXN.4XkXuXuXuXN.9 X       ",
"    O 9 d #XuXuXuXuXuXuXkXuXuXuXuXuXuXuX4XN.4XuXuXuXuXuXuXuXuXuXuXuXuXuXuX4XN.4XuXuXuXuXN.9 O     ",
"  # 9 N.#XqXuXuXuXuXuXuXuXuXuXuXuXuXuXuXuX4XqXuXuXuXuXuXuXuXuXuXuXuXuXuXuXuX4XqXuXuXuXuXuXN.9 #   ",
"  + t 0.qXuXuXuXuXuXkXuXuXuXuXuXuXuXuXuXuXuXuXuXuXuXuXuXuXuXuXuXuXuXuXuXuXuXkXuXuXuXuXuXuX0.t +   ",
"= 6 d 0.uXuXuXuXkX4X#XuXuXuXuXuXuXuXuXuXuXuXuXuXuXkXqX#XuXuXuXuXuXuXuXuXuXuXuXuXuXuXuXqX`.0.d 6 = ",
"= d 0.uXkXuXuXuX4XN.#XuXuXuXuXuXuXuXuXuXuXuXuXuXuX4X`.#XuXuXuXuXuXuXuXuXuXuXuXuXuXuXqX`.#XuX0.x = ",
"= d `.#XuXuXuXuX#X#XuXuXuXuXuXuXuXuXuXuXuXuXuXuXkX4X#XkXuXuXuXuXuXuXuXuXuXuXuXuXuXuX4X#XuX#X`.x = ",
"= d B >.qXuXuXuXuXuXuXuXuXuXuXuXuXuXuXuXuXuXuXuXuXuXuXuXuXuXuXuXuXuXuXuXuXuXuXuXuXuXuXuXqX>.B d = ",
"= d >.qXuXuXuXuXuXuXuXuXuXuXuXuXuXuXuXuXuXuXuXuXuXuXuXuXuXuXuXuXuXuXuXuXuXuXuXuXuXuXuXuXuXqX>.d = ",
"= d #XuXuXuXuXuXuXuXuXuXuXuXuXuXuXuXuXuXuXuXuXuXuXuXuXuXuXuXuXuXuXuXuXuXuXuXuXuXuXuXuXuXuXuX#Xd = ",
"= d >.qXuXuXuXuXuXuXuXuXuXuXuXuXuXuXuXuXuXuXuXuXuXuXuXuXuXuXuXuXuXuXuXuXuXuXuXuXuXuXuXuXuXqX>.d = ",
"= d #XuXuXuXuXuXuXuXuXuXuXuXuXuXuXuXuXuXuXuXuXuXuXuXuXuXuXuXuXuXuXuXuXuXuXuXuXuXuXuXuXuXuXuX#Xd = ",
"= d H 4XuXuXuXuXuXuXuXuXuXuXuXuXuXuXuXuXuXuXuXuXuXuXuXuXuXuXuXuXuXuXuXuXuXuXuXuXuXuXuXuXuX4XH d = ",
"= d B H 4XuXuXuXuXuXuXuXuXuXuXuXuXuXuXuXuXuXuXuXuXuXuXuXuXuXuXuXuXuXuXuXuXuXuXuXuXuXuXkX4XH B d = ",
"= d H #XuXuXuXuXuXuXuXuXuXuXuXuXuXuXuXuXuXuXuXuXuXuXuXuXuXuXuXuXuXuXuXuXuXuXuXuXuXuXuXuXuX#XH d = ",
"= x #XuXuXuXuXuXuXuXuXuXuXuXuXuXuXuXuXuXuXuXuXuXuXuXuXuXuXuXuXuXuXuXuXuXuXuXuXuXuXuXuXuXuXuX#Xd = ",
"= d >.>.4XkXuXuXuXuXuXuXuXuXuXuXuXuXuXuXuXuXuXuXuXuXuXuXuXuXuXuXuXuXuXuXuXuXuXuXuXuXuXkX4X0.>.d = ",
"= d B B 4XkXuXuXuXuXuXuXuXuXuXuXuXuXuXuX`.qXuXuXuXuXuXuXuXuXuXuXuXuXuXuXuX`.4XkXuXuXuXuXuX[.B d = ",
"= d `.#XN.qXkXuXuXuXuXuXuXuXuXuXuXuXuXuX4XN.4XkXuXuXuXuXuXuXuXuXuXuXuXuXuX4XN.4XkXuXuXuXuXuX[.x = ",
"= d 0.qX4XuXuXuXuXuXuXuXuXuXuXuXuXuXuXuXkX4XqXuXuXuXuXuXuXuXuXuXuXuXuXuXuXuX4XqXuXuXuXuXuXuX0.d = ",
"= d N.uXuXuXuXuXuXuXkXuXuXuXuXuXuXuXuXuXuXkXuXuXuXuXuXuXuXuXuXuXuXuXuXuXuXuXkXuXuXuXuXuXuXuXN.d = ",
"= x qXuXuXuXuXuXkX4X#XuXuXuXuXuXuXuXuXuXuXuXuXuXuXkXqX#XuXuXuXuXuXuXuXuXuXuXuXuXuXuXuXqX#XuXqXx = ",
"= d `.uXuXuXuXuX4XN.#XuXuXuXuXuXuXuXuXuXuXuXuXuXuXqX`.#XuXuXuXuXuXuXuXuXuXuXuXuXuXuXqX`.#XuX`.d = ",
"= d B `.uXuXuXuX#X#XkXuXuXuXuXuXuXuXuXuXuXuXuXuXkX4X#XkXuXuXuXuXuXuXuXuXuXuXuXuXuXuX4X[.uX`.B d = ",
"= d B >.4XkXuXuXuXuXuXuXuXuXuXuXuXuXuXuXuXuXuXuXuXuXuXuXuXuXuXuXuXuXuXuXuXuXuXuXuXuXuXuX4X>.B d = ",
"= d B 4XuXuXuXuXuXuXuXuXuXuXuXuXuXuXuXuXuXuXuXuXuXuXuXuXuXuXuXuXuXuXuXuXuXuXuXuXuXuXuXuXuX4XB d = ",
"= d H #XuXuXuXuXuXuXuXuXuXuXuXuXuXuXuXuXuXuXuXuXuXuXuXuXuXuXuXuXuXuXuXuXuXuXuXuXuXuXuXuXuX#XB d = ",
"= d B >.4XuXuXuXuXuXuXuXuXuXuXuXuXuXuXuXuXuXuXuXuXuXuXuXuXuXuXuXuXuXuXuXuXuXuXuXuXuXuXuX4XH B d = ",
"= d H 4XuXuXuXuXuXuXuXuXuXuXuXuXuXuXuXuXuXuXuXuXuXuXuXuXuXuXuXuXuXuXuXuXuXuXuXuXuXuXuXuXuX4XH d = ",
"= d #XuXuXuXuXuXuXuXuXuXuXuXuXuXuXuXuXuXuXuXuXuXuXuXuXuXuXuXuXuXuXuXuXuXuXuXuXuXuXuXuXuXuXuX4Xx = ",
"= d >.qXuXuXuXuXuXuXuXuXuXuXuXuXuXuXuXuXuXuXuXuXuXuXuXuXuXuXuXuXuXuXuXuXuXuXuXuXuXuXuXuXuXqX>.d = ",
"= d #XuXuXuXuXuXuXuXuXuXuXuXuXuXuXuXuXuXuXuXuXuXuXuXuXuXuXuXuXuXuXuXuXuXuXuXuXuXuXuXuXuXuXuX#Xx = ",
"= d >.qXuXuXuXuXuXuXuXuXuXuXuXuXuXuXuXuXuXuXuXuXuXuXuXuXuXuXuXuXuXuXuXuXuXuXuXuXuXuXuXuXuXqX>.d = ",
"w x #XuXuX`.#XuXuXuXuXuXuXuXuXuXuXuXuXuXuXuXuXuXuXuXuXuXuXuXuXuXuXuXuXuXuXuXuXuXuXuX#X`.uXuX#Xx w ",
"X.W qX`.0.`.qXuXuXuXuXuXuXuXuXuXuXuXuXuX`.4XuXuXuXuXuXuXuXuXuXuXuXuXuXuXuX`.4XkXuXuXqX`.`.uXqXW X.",
"X.n 0.H B #XuXuXuXuXuXuXuXuXuXuXuXuXuXuX4XN.4XuXuXuXuXuXuXuXuXuXuXuXuXuXuX4XN.4XuXuXuXuX`.0.0.n X.",
"X.l B B N.uX#X#XkXuXuXuXuXuXuXuXuXuXuXuXuX#XqXuXuXuXuXuXuXuXuXuXuXuXuXuXuXuX#X4XuX4X#XuX4XB B l X.",
"X.l B B 0.`.`.4XkXuXuXuX`.#XuXuXuXuX`.`.qXuXuXuXuXuXuXuXqX`.`.uXuXuXuX#X`.qXuXuXuX4X`.`.0.B B l X.",
"X.x B B B B 0.`.qXqX[.0.H [.uXuXuXuX`.H 0.uXuX4X`.4XqX`.0.H `.uXuXuXuX[.H 0.qXuX4X[.0.B B B B x X.",
"X.g k.H B B B B 0.[.>.B *.#XuX#X#X#X#XH B #X4X>.B >.`.>.B H #X#X#XuX#X#XH B #XqX>.B B B B B B g X.",
"  #.4X>.>.H >.H B >.N.B B H `.B B >.B B B N.>.B B H N.N.B B B B B [.H B B B N.>.H >.B B H >.l X.  ",
"  #.zXH 4X0.#XN.H H H >.H >.H >.H qX>.>.H >.H R H N.#XH >.H >.B >.H >.H >.H >.H `.`.H >.0.4Xk X.  ",
"    X.g !.k.[.N.`.[.0.#X>.4X>.qX>.qX>.4X>.#X0.[.`.`.#X0.4X>.qX>.qX>.qX>.4X0.#XN.`.`.0.#X~ zX#.    ",
"      X.X.g !.m.m.m.d.!.~ !.~ ^.~ ^.~ !.~ !.d.m.m.k.!.d.!.~ ^.~ ^.~ ^.~ !.d.!.d.m.m.d.lXX.X.      ",
"          X.#.#.#.#.X.#.X.#.X.#.X.#.X.#.X.#.X.#.#.#.#.X.#.X.#.X.#.X.#.X.#.X.#.X.#.#.X.#.          ",
"                                                                                                  "
};
