/* XPM */
static char *wall_br[] = {
/* columns rows colors chars-per-pixel */
"50 50 26 1 ",
"  c #94655C",
". c #96695E",
"X c #9B6C5D",
"o c #9F705D",
"O c #A06F5A",
"+ c #A3745B",
"@ c #A87759",
"# c #A7795F",
"$ c #AC7C5B",
"% c #9B6E60",
"& c #9E7160",
"* c #A27561",
"= c #A77B64",
"- c #AB7F64",
"; c #AF805D",
": c #B1825E",
"> c #AE8265",
", c #B48761",
"< c #B68962",
"1 c #BB8F65",
"2 c #B78C68",
"3 c #BB8F68",
"4 c #BD9166",
"5 c #BE9368",
"6 c #C2976A",
"7 c #C2986A",
/* pixels */
"<<6%21<<4>*6<16$6<<6%24<<4,*6<16$6<<6&<4<,4,*6<16$",
"<<<$,<<<<;$1<<<$<<<1X><<<1-o1<<<$<<<1X-1<<1-X1<<<$",
"$$,$,<<<:$$<<<,X$$$,.-<<<<;$<<<,$$$$,X-<<<:+X<<<, ",
"  $$,<<:$$$$;<,    $.-:$:<:$$$<,$   $.-:$$$oX$$<, ",
"32X+$o+$$$$$$$$ 233X +$@$$$$$$$$X-><X ++ +$O  X$$ ",
"44<$X-3:$$;41+X<144<% ,4:@$:4<X$<<<12% +-+++.-=X$<",
"<<4+-144::444,.1<<<4#>144::441>o1<<<4$+,1,+o$$$=o4",
"::<.,1<1,:1<11+<<::<$11<1,:1<1< ,<::<$:<::+X;@$$ ,",
"XX$.-:::$;<,:;$<:X+;$,:::$;<,:$.<:XX$+$:$$XX$$$+ <",
"-=XX$$@++$:$XO$:X=,$$;$@$++:$XX ;X=-o ++XX.X$+XX :",
"66-$$:,-++++==@+=56<$@:,,+X++=* +=56- X*==%X@+=* X",
"<<6$:466,++-75;X5<<5$$466,++-75*X5<<6&%<77<++-65*X",
"<<<$41<<4>*6<15$<<<<.<1<<4>*6<15$<<<<X<1<<4>*6<15$",
",,<$,<,,<=o<,,,$<,,<X-<,,<=X<,,,$<,,<X-<,,<#X<,,,$",
"++,X-$++;#X:+$,$,@+,X-$++$#X:+$,$,$+:X-$++$#X:+$,$",
"..+ +X..+XX+.X+ +X.+ +X..+XX+.X@@+X.+ +X..oXX+.X@@",
"66%  <77>  *73  X56&  <77>  *73  .56&  ,77>  *75. ",
"<<5%<1<<4<:5<13.51<5%<1<<4<,5<13.51<5%,4<<4<;5<15 ",
"<<1$,<<<<:$1<<,.<<<1$,<<<<,$1<<, <<<1$,<<<<:$1<<, ",
"<<$$,<<<<$+<<<, ,<<<,$:<<<-+<<<, ,<<<$$:<<<-o<<<,+",
"$$$$$$$$$+X$$$$ $$$$$X+$$$+X$$$$ $$$$$$$$$$+X$$$$$",
"  ..                                  .          .",
"-----$--------------$$--$$--------$---------$$----",
"<<<<<<<<<<<<<<<<<<<<<<<<<<<<<<<<<<<<<<<<<<<<<<<<<<",
"<<<<<<<<<<<<<<<<<<<<<<<<<<<<<<<<<<<<<<<<<<<<<<<<<<",
"<<<<<<<<<<<<<<<<<<<<<<<<<<<<<<<<<<<<<<<<<<<<<<<<<<",
"44444455444444445544444444444444444454444444444444",
"<<<<<<2<2<<2<<<<<2<22<<<<<2<<2<2<<<<<2<<2<2222<<<<",
"                                                  ",
"$$$$.+$$$+X$$$$$$$$$$$$$$$$+.$$$$$$$$$X+$$$+X$$$$$",
"<<<<X-<<<:$<<<<,$<<<<$:<<<<-o<<<<$,<<<X-<<<:$<<<<<",
"<<<<X-<<<:$<<<<, ,<<<$:<<<<:$<<<, ,<<<X-<<<:$<<<<<",
"<<<1X-<<<<:$<<<, ,<<1X-1<<<,$<<<, ,<<1X-1<<<,$<<<<",
"61<6&,4<<4,*6<15.51<6&,4<<4,&6<15.51<6&,4<<4,&6<16",
"X57*  ,77,  *75. .57*  ,77,  *75. .57*  ,77,  *75X",
"+XX+ ooXXoX.+XX+++XX+ XoXXoX +XX+++XX+.XoXXoo +XX+",
",++:X$$++@+X:++:$,++:X$$++$$X:++,$:++:X#$++$$X:++,",
"<,,<X-<,$$+X<,,<$,,,<X-<,,<-X<,,<$,,,<X-<,,<-X<,,<",
"6<<6&,1<,:#X<<<,$5<<6&,4<<4,X<<<,$51<6&,4<<1,X<<<<",
",56- &<64>.*5<<5X=56-+*<664$$5<<5X=56>++<66<%&5<<6",
"X=-+X &-=oX.>65=X *-o+ =<<:@$155-X =-+@X&--*X.>65-",
" +X+$X.XX++ +>-X$ XX$:++@@$$$$<-X$ XX+$X XX++ o>-X",
" ,::$X+$$$+X+XX:, $:<<$$;;::$$+X:, +$$$XX$$:$+$XX;",
" 1<<:X+$$$+X;$:<, 11<1:,1<1<$,$:<, $$$$X+::<:$,;:<",
" ,1<>o+$$$+&4<<<1X,114:,411>$1<<<1X-$$$o+,1,+$1<<<",
". <>.+X+>+ *3111<$X15;$@,6> %31113$X->.+X+>+ %31<<",
"$$.  +$X X$+o552X$$$$$$$$$$+ o552 $$X  +$+ o+ X3>>",
"<<$$.-:$$$$$+   $<<$$$:<:$:-X+    ,<$$X+$$$:-.$   ",
"<<<<X-<<:$$$,$$$$<<<<$:<<<<-X,$$$ ,<<<X+:<<<-X,$$$",
"<<<<X-<<<<:$<<<,$<<<<X-<<<<-X<<<,$,<<<X-<<<<-X<<<<"
};
